<?xml version="1.0" standalone="yes"?>
<svg xmlns="http://www.w3.org/2000/svg" width="512" height="512">
<path style="fill:#000000; stroke:none;" d="M0 0L0 512L512 512L512 0L0 0z"/>
<path style="fill:#505050; stroke:none;" d="M51 2L52 3L51 2z"/>
<path style="fill:#808080; stroke:none;" d="M52 2C55.9586 3.6611 60.7397 3 65 3L88 3L170 3C166.041 1.33887 161.26 2 157 2L134 2L52 2z"/>
<path style="fill:#7e7e7e; stroke:none;" d="M51 3L51 8C51.8299 5.96948 51.8299 5.03049 51 3z"/>
<path style="fill:#ffffff; stroke:none;" d="M52 3L53 56C49.381 44.0901 48.0343 28.4501 48 16C36.7631 16.9811 24.7268 22.1865 14 25.6697C11.0382 26.6315 5.10836 27.3218 3.60725 30.4298C2.03531 33.6844 3.97705 38.6813 4.57562 42L9.57562 69C13.5457 91.0118 17.5667 113.038 21.8032 135C24.3804 148.36 28.4145 162.399 29 176C37.3894 174.264 45.4885 171.146 54 170L54 181C36.4054 179.611 18.6749 179 1 179L1 285C12.3304 284.766 23.6541 283.008 35 283C28.1543 295.997 20.0929 308.368 12.6034 321C9.20991 326.723 3.79268 333.438 2.39738 340C1.62371 343.638 2.7842 347.354 2.96142 351C3.51302 362.347 4.74986 373.693 5.83025 385C7.54754 402.973 8.45274 421.03 10.1698 439C11.3427 451.275 13 463.654 13 476C19.6619 467.96 23.5777 456.338 28.2469 447C35.5718 432.35 45.4665 416.737 50 401C53.6095 413.211 50.588 428.472 50.0394 441C49.0541 463.501 49 486.519 49 509L172 509C172 490.297 171 471.643 171 453C171 439.582 172.454 425.219 170 412C174.398 419.083 176.069 427.619 180 435C190.05 427.916 198.272 416.728 207 408L207 509L328 509L328 452C328 446.426 325.847 435.084 329.028 430.318C331.534 426.563 339.146 428 343 428L370 428C373.569 428 378.507 427.153 381.852 428.603C384.622 429.805 384.799 432.365 385 435L348 435C347.804 458.653 346 482.297 346 506C398.958 506 452.036 509 505 509L505 248L279 248L226 248C222.887 248 209.029 249.817 209.921 244.09C210.69 239.153 222.575 241 226 241L280 241L510 241L510 167C485.952 167 462.058 167.998 438 168C432.538 168 426.366 169.651 421.019 168.848C418.929 168.534 416.636 167.458 416.636 165C416.636 158.548 431.149 161.999 435 162C454.667 162.008 474.351 163.998 494 164L494 100C474.275 100 454.711 100.992 435 101C431.149 101.001 416.636 104.452 416.636 98C416.636 95.5336 418.931 94.478 421.019 94.1489C426.156 93.3393 431.795 94.9916 437 95C459.723 95.0365 482.29 96 505 96L505 19C475.365 19.0195 445.681 21 416 21C417.036 15.4243 417.883 9.67209 418 4L292 4C292.116 9.60489 292.701 15.5476 294 21C279.299 21 264.631 20.1779 250 20.0038C223.923 19.6936 197.762 19.7826 172 15C171.738 27.6947 169.008 40.2751 169 53C167.488 47.8716 168.857 43.2249 168.985 38C169.272 26.2906 169.499 14.6697 170 3L52 3z"/>
<path style="fill:#5d5d5d; stroke:none;" d="M291 3L291 7C291.71 5.24045 291.71 4.75955 291 3z"/>
<path style="fill:#858585; stroke:none;" d="M292 3C295.959 4.6611 300.74 4 305 4L330 4L418 4C414.041 2.3389 409.26 3 405 3L380 3L292 3z"/>
<path style="fill:#4d4d4d; stroke:none;" d="M418 3L418 6C418.696 4.44632 418.696 4.55371 418 3z"/>
<path style="fill:#616161; stroke:none;" d="M51 8L51 11C51.6961 9.44635 51.6961 9.55368 51 8z"/>
<path style="fill:#e5e5e5; stroke:none;" d="M169 8L169 11C169.696 9.44629 169.696 9.55374 169 8z"/>
<path style="fill:#b5b5b5; stroke:none;" d="M292 10L292 13C292.696 11.4463 292.696 11.5537 292 10z"/>
<path style="fill:#a6a6a6; stroke:none;" d="M417.333 10.6667C417.278 10.7224 417.222 11.7776 417.667 11.3333C417.722 11.2778 417.778 10.2222 417.333 10.6667z"/>
<path style="fill:#444444; stroke:none;" d="M51 11L51 14C51.6961 12.4463 51.6961 12.5537 51 11z"/>
<path style="fill:#bbbbbb; stroke:none;" d="M169 11L169 18C170.059 15.4657 170.059 13.5344 169 11z"/>
<path style="fill:#5d5d5d; stroke:none;" d="M417 12L417 15C417.696 13.4463 417.696 13.5537 417 12z"/>
<path style="fill:#484848; stroke:none;" d="M292.333 13.6667C292.278 13.7223 292.222 14.7777 292.667 14.3333C292.722 14.2778 292.778 13.2222 292.333 13.6667z"/>
<path style="fill:#353535; stroke:none;" d="M46.6667 14.3333C46.2222 14.7778 47.2778 14.7222 47.3333 14.6667C47.7778 14.2222 46.7222 14.2778 46.6667 14.3333z"/>
<path style="fill:#272727; stroke:none;" d="M51 14L51 17C51.6961 15.4464 51.6961 15.5537 51 14z"/>
<path style="fill:#747474; stroke:none;" d="M172 14C173.248 14.6848 173.548 14.7488 175 15C173.752 14.3152 173.452 14.2512 172 14z"/>
<path style="fill:#434343; stroke:none;" d="M175.667 14.3333C175.222 14.7779 176.278 14.7221 176.333 14.6667C176.778 14.2224 175.722 14.2776 175.667 14.3333z"/>
<path style="fill:#222222; stroke:none;" d="M177.667 14.3333C177.222 14.7779 178.278 14.7221 178.333 14.6667C178.778 14.2224 177.722 14.2776 177.667 14.3333z"/>
<path style="fill:#2e2e2e; stroke:none;" d="M43 15L44 16L43 15z"/>
<path style="fill:#979797; stroke:none;" d="M44 15C45.506 15.683 46.3149 15.8259 48 16C46.4939 15.3169 45.6853 15.1741 44 15z"/>
<path style="fill:#383838; stroke:none;" d="M171 15L171 18C171.696 16.4463 171.696 16.5537 171 15z"/>
<path style="fill:#d3d3d3; stroke:none;" d="M174.667 15.3333C174.222 15.7779 175.278 15.7221 175.333 15.6667C175.778 15.2224 174.722 15.2777 174.667 15.3333z"/>
<path style="fill:#b2b2b2; stroke:none;" d="M176.667 15.3333C176.222 15.7779 177.278 15.7222 177.333 15.6667C177.778 15.2224 176.722 15.2777 176.667 15.3333z"/>
<path style="fill:#808080; stroke:none;" d="M178 15C179.769 15.7789 181.036 15.9124 183 16C181.231 15.221 179.964 15.0876 178 15z"/>
<path style="fill:#545454; stroke:none;" d="M183.667 15.3333C183.222 15.7779 184.278 15.7221 184.333 15.6667C184.778 15.2224 183.722 15.2777 183.667 15.3333z"/>
<path style="fill:#333333; stroke:none;" d="M185.667 15.3333C185.222 15.7779 186.278 15.7221 186.333 15.6667C186.778 15.2224 185.722 15.2777 185.667 15.3333z"/>
<path style="fill:#181818; stroke:none;" d="M187.667 15.3333C187.222 15.7779 188.278 15.7222 188.333 15.6667C188.778 15.2224 187.722 15.2777 187.667 15.3333z"/>
<path style="fill:#3a3a3a; stroke:none;" d="M40 16L41 17L40 16z"/>
<path style="fill:#808080; stroke:none;" d="M41.6667 16.3333C41.2222 16.7778 42.2778 16.7222 42.3333 16.6667C42.7778 16.2222 41.7222 16.2778 41.6667 16.3333z"/>
<path style="fill:#aeaeae; stroke:none;" d="M43 16L44 17L43 16z"/>
<path style="fill:#d3d3d3; stroke:none;" d="M183 16C184.248 16.6848 184.548 16.7488 186 17C184.752 16.3152 184.452 16.2512 183 16z"/>
<path style="fill:#a5a5a5; stroke:none;" d="M186.667 16.3333C186.222 16.7779 187.278 16.7221 187.333 16.6667C187.778 16.2224 186.722 16.2776 186.667 16.3333z"/>
<path style="fill:#8a8a8a; stroke:none;" d="M188 16C189.248 16.6848 189.548 16.7488 191 17C189.752 16.3151 189.452 16.2512 188 16z"/>
<path style="fill:#656565; stroke:none;" d="M191.667 16.3333C191.222 16.7779 192.278 16.7221 192.333 16.6667C192.778 16.2224 191.722 16.2777 191.667 16.3333z"/>
<path style="fill:#454545; stroke:none;" d="M193 16C194.248 16.6848 194.548 16.7488 196 17C194.752 16.3151 194.452 16.2512 193 16z"/>
<path style="fill:#1d1d1d; stroke:none;" d="M196.667 16.3333C196.222 16.7779 197.278 16.722 197.333 16.6667C197.778 16.2224 196.722 16.2777 196.667 16.3333z"/>
<path style="fill:#464646; stroke:none;" d="M37 17L38 18L37 17z"/>
<path style="fill:#8c8c8c; stroke:none;" d="M38.6667 17.3333C38.2222 17.7778 39.2778 17.7222 39.3333 17.6667C39.7778 17.2222 38.7222 17.2778 38.6667 17.3333z"/>
<path style="fill:#bababa; stroke:none;" d="M40 17L41 18L40 17z"/>
<path style="fill:#d4d4d4; stroke:none;" d="M192.667 17.3333C192.222 17.778 193.278 17.7221 193.333 17.6667C193.778 17.2224 192.722 17.2777 192.667 17.3333z"/>
<path style="fill:#b7b7b7; stroke:none;" d="M194 17C195.248 17.6848 195.548 17.7488 197 18C195.752 17.3152 195.452 17.2512 194 17z"/>
<path style="fill:#8f8f8f; stroke:none;" d="M197.667 17.3333C197.222 17.7779 198.278 17.7221 198.333 17.6667C198.778 17.2224 197.722 17.2777 197.667 17.3333z"/>
<path style="fill:#767676; stroke:none;" d="M199.667 17.3333C199.222 17.7779 200.278 17.7221 200.333 17.6667C200.778 17.2224 199.722 17.2777 199.667 17.3333z"/>
<path style="fill:#585858; stroke:none;" d="M201.667 17.3333C201.222 17.778 202.278 17.7221 202.333 17.6667C202.778 17.2224 201.722 17.2777 201.667 17.3333z"/>
<path style="fill:#3d3d3d; stroke:none;" d="M203.667 17.3333C203.222 17.7779 204.278 17.7221 204.333 17.6667C204.778 17.2224 203.722 17.2777 203.667 17.3333z"/>
<path style="fill:#222222; stroke:none;" d="M205.667 17.3333C205.222 17.7779 206.278 17.7221 206.333 17.6667C206.778 17.2224 205.722 17.2777 205.667 17.3333z"/>
<path style="fill:#525252; stroke:none;" d="M34 18L35 19L34 18z"/>
<path style="fill:#989898; stroke:none;" d="M35.6667 18.3333C35.2222 18.7778 36.2778 18.7222 36.3333 18.6667C36.7778 18.2222 35.7222 18.2778 35.6667 18.3333z"/>
<path style="fill:#c5c5c5; stroke:none;" d="M37 18L38 19L37 18z"/>
<path style="fill:#808080; stroke:none;" d="M169 18L169 25C170.059 22.4657 170.059 20.5343 169 18z"/>
<path style="fill:#878787; stroke:none;" d="M171.333 18.6667C171.278 18.7221 171.222 19.7778 171.667 19.3333C171.722 19.2777 171.778 18.2223 171.333 18.6667z"/>
<path style="fill:#d7d7d7; stroke:none;" d="M201 18C202.248 18.6848 202.548 18.7488 204 19C202.752 18.3152 202.452 18.2512 201 18z"/>
<path style="fill:#afafaf; stroke:none;" d="M204.667 18.3333C204.222 18.7779 205.278 18.7221 205.333 18.6667C205.778 18.2224 204.722 18.2778 204.667 18.3333z"/>
<path style="fill:#7e7e7e; stroke:none;" d="M206 18C207.769 18.7789 209.036 18.9124 211 19C209.231 18.221 207.964 18.0876 206 18z"/>
<path style="fill:#6d6d6d; stroke:none;" d="M211 18C213.89 19.213 216.874 18.9983 220 19C217.11 17.787 214.126 18.0017 211 18z"/>
<path style="fill:#494949; stroke:none;" d="M220 18C224.471 19.8763 230.183 19 235 19C230.529 17.1237 224.817 18 220 18z"/>
<path style="fill:#2d2d2d; stroke:none;" d="M235 18C237.613 19.0977 240.164 18.9928 243 19C240.387 17.9023 237.835 18.0072 235 18z"/>
<path style="fill:#b5b5b5; stroke:none;" d="M416 18L416 21C416.696 19.4463 416.696 19.5537 416 18z"/>
<path style="fill:#151515; stroke:none;" d="M464 18C465.769 18.7789 467.036 18.9124 469 19C467.231 18.2211 465.964 18.0876 464 18z"/>
<path style="fill:#262626; stroke:none;" d="M469 18C470.769 18.7789 472.036 18.9124 474 19C472.231 18.2211 470.964 18.0876 469 18z"/>
<path style="fill:#373737; stroke:none;" d="M474 18C476.331 18.9845 478.457 18.9813 481 19C478.668 18.0154 476.543 18.0187 474 18z"/>
<path style="fill:#4f4f4f; stroke:none;" d="M481 18C483.332 18.9845 485.457 18.9813 488 19C485.668 18.0154 483.543 18.0187 481 18z"/>
<path style="fill:#676767; stroke:none;" d="M488 18C490.332 18.9845 492.457 18.9813 495 19C492.668 18.0154 490.543 18.0187 488 18z"/>
<path style="fill:#808080; stroke:none;" d="M495 18C498.163 19.3274 501.586 18.9996 505 19C501.837 17.6726 498.414 18.0004 495 18z"/>
<path style="fill:#303030; stroke:none;" d="M30 19L31 20L30 19z"/>
<path style="fill:#808080; stroke:none;" d="M31 19C32.2485 19.6849 32.5483 19.7487 34 20C32.7517 19.3152 32.4515 19.2512 31 19z"/>
<path style="fill:#d1d1d1; stroke:none;" d="M34 19L35 20L34 19z"/>
<path style="fill:#eaeaea; stroke:none;" d="M213 19C214.769 19.7789 216.036 19.9124 218 20C216.231 19.2211 214.964 19.0876 213 19z"/>
<path style="fill:#d9d9d9; stroke:none;" d="M218 19C220.052 19.8742 221.747 19.9528 224 20C221.948 19.1258 220.253 19.0472 218 19z"/>
<path style="fill:#c8c8c8; stroke:none;" d="M224 19C226.89 20.213 229.874 19.9983 233 20C230.11 18.7871 227.126 19.0017 224 19z"/>
<path style="fill:#afafaf; stroke:none;" d="M233 19C235.052 19.8742 236.747 19.9528 239 20C236.948 19.1258 235.253 19.0472 233 19z"/>
<path style="fill:#9e9e9e; stroke:none;" d="M239 19C240.769 19.7789 242.036 19.9124 244 20C242.231 19.2211 240.964 19.0876 239 19z"/>
<path style="fill:#808080; stroke:none;" d="M244 19C247.697 20.5515 252.017 20 256 20C252.302 18.4485 247.983 19 244 19z"/>
<path style="fill:#616161; stroke:none;" d="M256 19C260.724 20.9822 266.91 20 272 20C267.276 18.0178 261.09 19 256 19z"/>
<path style="fill:#3a3a3a; stroke:none;" d="M272 19C274.89 20.213 277.874 19.9983 281 20C278.11 18.787 275.126 19.0017 272 19z"/>
<path style="fill:#1d1d1d; stroke:none;" d="M281 19C283.613 20.0977 286.164 19.9928 289 20C286.387 18.9023 283.836 19.0072 281 19z"/>
<path style="fill:#d9d9d9; stroke:none;" d="M293.333 19.6667C293.278 19.7223 293.222 20.7777 293.667 20.3333C293.722 20.2778 293.778 19.2221 293.333 19.6667z"/>
<path style="fill:#1b1b1b; stroke:none;" d="M422 19C424.052 19.8742 425.747 19.9528 428 20C425.948 19.1258 424.253 19.0472 422 19z"/>
<path style="fill:#333333; stroke:none;" d="M428 19C430.332 19.9845 432.457 19.9813 435 20C432.668 19.0155 430.543 19.0187 428 19z"/>
<path style="fill:#484848; stroke:none;" d="M435 19C437.052 19.8742 438.747 19.9528 441 20C438.948 19.1257 437.253 19.0472 435 19z"/>
<path style="fill:#5d5d5d; stroke:none;" d="M441 19C443.052 19.8742 444.747 19.9528 447 20C444.948 19.1257 443.253 19.0472 441 19z"/>
<path style="fill:#808080; stroke:none;" d="M447 19C451.724 20.9822 457.91 20 463 20C458.276 18.0178 452.09 19 447 19z"/>
<path style="fill:#919191; stroke:none;" d="M463 19C464.769 19.779 466.036 19.9124 468 20C466.231 19.2211 464.964 19.0876 463 19z"/>
<path style="fill:#a2a2a2; stroke:none;" d="M468 19C470.332 19.9845 472.457 19.9813 475 20C472.668 19.0155 470.543 19.0187 468 19z"/>
<path style="fill:#bababa; stroke:none;" d="M475 19C477.332 19.9845 479.457 19.9813 482 20C479.668 19.0155 477.543 19.0187 475 19z"/>
<path style="fill:#d2d2d2; stroke:none;" d="M482 19C484.332 19.9845 486.457 19.9813 489 20C486.668 19.0154 484.543 19.0187 482 19z"/>
<path style="fill:#eaeaea; stroke:none;" d="M489 19C491.332 19.9845 493.457 19.9813 496 20C493.668 19.0155 491.543 19.0187 489 19z"/>
<path style="fill:#3c3c3c; stroke:none;" d="M27 20L28 21L27 20z"/>
<path style="fill:#828282; stroke:none;" d="M28.6667 20.3333C28.2222 20.7778 29.2778 20.7222 29.3333 20.6667C29.7777 20.2224 28.7223 20.2777 28.6667 20.3333z"/>
<path style="fill:#afafaf; stroke:none;" d="M30 20L31 21L30 20z"/>
<path style="fill:#626262; stroke:none;" d="M48 20L48 23C48.6961 21.4463 48.6961 21.5537 48 20z"/>
<path style="fill:#bcbcbc; stroke:none;" d="M171.333 20.6667C171.278 20.7221 171.222 21.7779 171.667 21.3333C171.722 21.2776 171.778 20.2223 171.333 20.6667z"/>
<path style="fill:#eeeeee; stroke:none;" d="M256 20C258.89 21.213 261.874 20.9983 265 21C262.11 19.787 259.126 20.0017 256 20z"/>
<path style="fill:#d4d4d4; stroke:none;" d="M265 20C267.89 21.213 270.874 20.9983 274 21C271.11 19.787 268.126 20.0017 265 20z"/>
<path style="fill:#b2b2b2; stroke:none;" d="M274 20C276.89 21.213 279.874 20.9983 283 21C280.11 19.787 277.126 20.0017 274 20z"/>
<path style="fill:#919191; stroke:none;" d="M283 20C286.163 21.3274 289.586 20.9996 293 21C289.837 19.6726 286.414 20.0004 283 20z"/>
<path style="fill:#898989; stroke:none;" d="M417 20C419.052 20.8742 420.747 20.9528 423 21C420.948 20.1258 419.253 20.0472 417 20z"/>
<path style="fill:#9e9e9e; stroke:none;" d="M423 20C425.332 20.9845 427.457 20.9813 430 21C427.668 20.0155 425.543 20.0187 423 20z"/>
<path style="fill:#b6b6b6; stroke:none;" d="M430 20C432.052 20.8742 433.747 20.9528 436 21C433.948 20.1258 432.253 20.0472 430 20z"/>
<path style="fill:#cbcbcb; stroke:none;" d="M436 20C438.052 20.8742 439.747 20.9528 442 21C439.948 20.1258 438.253 20.0472 436 20z"/>
<path style="fill:#e0e0e0; stroke:none;" d="M442 20C444.052 20.8742 445.747 20.9528 448 21C445.948 20.1258 444.253 20.0472 442 20z"/>
<path style="fill:#474747; stroke:none;" d="M24 21L25 22L24 21z"/>
<path style="fill:#8e8e8e; stroke:none;" d="M25.6667 21.3333C25.2222 21.7778 26.2778 21.7222 26.3333 21.6667C26.7777 21.2223 25.7222 21.2778 25.6667 21.3333z"/>
<path style="fill:#bbbbbb; stroke:none;" d="M27 21L28 22L27 21z"/>
<path style="fill:#525252; stroke:none;" d="M21 22L22 23L21 22z"/>
<path style="fill:#9a9a9a; stroke:none;" d="M22.6667 22.3333C22.2222 22.7778 23.2779 22.7221 23.3333 22.6667C23.7777 22.2223 22.7223 22.2777 22.6667 22.3333z"/>
<path style="fill:#c7c7c7; stroke:none;" d="M24 22L25 23L24 22z"/>
<path style="fill:#313131; stroke:none;" d="M17 23L18 24L17 23z"/>
<path style="fill:#808080; stroke:none;" d="M18 23C19.2485 23.6849 19.5483 23.7488 21 24C19.7517 23.3152 19.4515 23.2512 18 23z"/>
<path style="fill:#d1d1d1; stroke:none;" d="M21 23L22 24L21 23z"/>
<path style="fill:#d5d5d5; stroke:none;" d="M48.3333 23.6667C48.2778 23.7222 48.2222 24.7778 48.6667 24.3333C48.7222 24.2778 48.7778 23.2222 48.3333 23.6667z"/>
<path style="fill:#3c3c3c; stroke:none;" d="M14 24L15 25L14 24z"/>
<path style="fill:#848484; stroke:none;" d="M15.6667 24.3333C15.2223 24.7776 16.2777 24.7223 16.3333 24.6667C16.7778 24.2222 15.7222 24.2778 15.6667 24.3333z"/>
<path style="fill:#b1b1b1; stroke:none;" d="M17 24L18 25L17 24z"/>
<path style="fill:#474747; stroke:none;" d="M11 25L12 26L11 25z"/>
<path style="fill:#8f8f8f; stroke:none;" d="M12.6667 25.3333C12.2223 25.7777 13.2778 25.7222 13.3333 25.6667C13.7778 25.2222 12.7222 25.2778 12.6667 25.3333z"/>
<path style="fill:#bcbcbc; stroke:none;" d="M14 25L15 26L14 25z"/>
<path style="fill:#313131; stroke:none;" d="M169 25C169.307 27.1227 169.382 27.686 171 29C170.436 27.248 170.081 26.4581 169 25z"/>
<path style="fill:#515151; stroke:none;" d="M8 26L9 27L8 26z"/>
<path style="fill:#9b9b9b; stroke:none;" d="M9.66667 26.3333C9.22227 26.7777 10.2778 26.7222 10.3333 26.6667C10.7779 26.2221 9.72218 26.2778 9.66667 26.3333z"/>
<path style="fill:#c6c6c6; stroke:none;" d="M11 26L12 27L11 26z"/>
<path style="fill:#313131; stroke:none;" d="M4 27L5 28L4 27z"/>
<path style="fill:#808080; stroke:none;" d="M5 27C6.24854 27.6849 6.54823 27.7487 8 28C6.75182 27.3153 6.45142 27.2512 5 27z"/>
<path style="fill:#d1d1d1; stroke:none;" d="M8 27L9 28L8 27z"/>
<path style="fill:#858585; stroke:none;" d="M2.66667 28.3333C2.22224 28.7777 3.27773 28.7223 3.33333 28.6667C3.77769 28.2223 2.72227 28.2777 2.66667 28.3333z"/>
<path style="fill:#b0b0b0; stroke:none;" d="M4 28L5 29L4 28z"/>
<path style="fill:#323232; stroke:none;" d="M49 28L50 29L49 28z"/>
<path style="fill:#dadada; stroke:none;" d="M2.33333 29.6667C2.27784 29.7221 2.22225 30.7778 2.66667 30.3333C2.72234 30.2776 2.77773 29.2223 2.33333 29.6667z"/>
<path style="fill:#868686; stroke:none;" d="M49 29L49 32C49.6961 30.4464 49.6961 30.5537 49 29z"/>
<path style="fill:#e2e2e2; stroke:none;" d="M52 29L52 32C52.6961 30.4464 52.6961 30.5537 52 29z"/>
<path style="fill:#000000; stroke:none;" d="M169 29L169 38C170.256 35.0059 170.256 31.9941 169 29z"/>
<path style="fill:#808080; stroke:none;" d="M170 29L170 32C170.696 30.4463 170.696 30.5537 170 29z"/>
<path style="fill:#a5a5a5; stroke:none;" d="M2 31L3 32L2 31z"/>
<path style="fill:#6f6f6f; stroke:none;" d="M2 32L3 33L2 32z"/>
<path style="fill:#bbbbbb; stroke:none;" d="M52 32L52 35C52.6961 33.4463 52.6961 33.5536 52 32z"/>
<path style="fill:#939393; stroke:none;" d="M52 35L52 38C52.6961 36.4463 52.6961 36.5536 52 35z"/>
<path style="fill:#b8b8b8; stroke:none;" d="M3 36L4 37L3 36z"/>
<path style="fill:#828282; stroke:none;" d="M3 37L4 38L3 37z"/>
<path style="fill:#525252; stroke:none;" d="M50 37L51 38L50 37z"/>
<path style="fill:#4d4d4d; stroke:none;" d="M3 38L4 39L3 38z"/>
<path style="fill:#aaaaaa; stroke:none;" d="M50.3333 38.6667C50.2778 38.7222 50.2222 39.7778 50.6667 39.3333C50.7223 39.2777 50.7778 38.2222 50.3333 38.6667z"/>
<path style="fill:#585858; stroke:none;" d="M52 38L52 45C53.0595 42.4657 53.0595 40.5343 52 38z"/>
<path style="fill:#444444; stroke:none;" d="M169 38L169 41C169.696 39.4463 169.696 39.5537 169 38z"/>
<path style="fill:#cbcbcb; stroke:none;" d="M4 41L5 42L4 41z"/>
<path style="fill:#868686; stroke:none;" d="M169 41L170 42L169 41z"/>
<path style="fill:#969696; stroke:none;" d="M4 42L5 43L4 42z"/>
<path style="fill:#b5b5b5; stroke:none;" d="M169 42L170 43L169 42z"/>
<path style="fill:#606060; stroke:none;" d="M4 43L5 44L4 43z"/>
<path style="fill:#d9d9d9; stroke:none;" d="M168 43L168 48C168.924 46.3519 169.449 44.8251 170 43L168 43z"/>
<path style="fill:#313131; stroke:none;" d="M51 45C51.5451 46.6352 51.3648 46.4549 53 47L53 45L51 45z"/>
<path style="fill:#717171; stroke:none;" d="M51 46L52 47L51 46z"/>
<path style="fill:#a9a9a9; stroke:none;" d="M5 47L6 48L5 47z"/>
<path style="fill:#cecece; stroke:none;" d="M51.3333 47.6667C51.2778 47.7222 51.2222 48.7778 51.6667 48.3333C51.7222 48.2778 51.7778 47.2222 51.3333 47.6667z"/>
<path style="fill:#030303; stroke:none;" d="M52 47L52 54C53.0595 51.4657 53.0595 49.5343 52 47z"/>
<path style="fill:#737373; stroke:none;" d="M5 48L6 49L5 48z"/>
<path style="fill:#bfbfbf; stroke:none;" d="M168 48L168 53C168.83 50.9695 168.83 50.0305 168 48z"/>
<path style="fill:#3e3e3e; stroke:none;" d="M5 49L6 50L5 49z"/>
<path style="fill:#bcbcbc; stroke:none;" d="M6 52L7 53L6 52z"/>
<path style="fill:#878787; stroke:none;" d="M6 53L7 54L6 53z"/>
<path style="fill:#515151; stroke:none;" d="M6 54L7 55L6 54z"/>
<path style="fill:#565656; stroke:none;" d="M52 54L53 55L52 54z"/>
<path style="fill:#909090; stroke:none;" d="M52 55L53 56L52 55z"/>
<path style="fill:#d0d0d0; stroke:none;" d="M7 57L8 58L7 57z"/>
<path style="fill:#9a9a9a; stroke:none;" d="M7 58L8 59L7 58z"/>
<path style="fill:#646464; stroke:none;" d="M7 59L8 60L7 59z"/>
<path style="fill:#adadad; stroke:none;" d="M8 63L9 64L8 63z"/>
<path style="fill:#787878; stroke:none;" d="M8 64L9 65L8 64z"/>
<path style="fill:#424242; stroke:none;" d="M8 65L9 66L8 65z"/>
<path style="fill:#c1c1c1; stroke:none;" d="M9 68L10 69L9 68z"/>
<path style="fill:#8b8b8b; stroke:none;" d="M9 69L10 70L9 69z"/>
<path style="fill:#555555; stroke:none;" d="M9 70L10 71L9 70z"/>
<path style="fill:#9f9f9f; stroke:none;" d="M10 74L11 75L10 74z"/>
<path style="fill:#696969; stroke:none;" d="M10 75L11 76L10 75z"/>
<path style="fill:#b2b2b2; stroke:none;" d="M11 79L12 80L11 79z"/>
<path style="fill:#7c7c7c; stroke:none;" d="M11 80L12 81L11 80z"/>
<path style="fill:#474747; stroke:none;" d="M11 81L12 82L11 81z"/>
<path style="fill:#c6c6c6; stroke:none;" d="M12 84L13 85L12 84z"/>
<path style="fill:#909090; stroke:none;" d="M12 85L13 86L12 85z"/>
<path style="fill:#5a5a5a; stroke:none;" d="M12 86L13 87L12 86z"/>
<path style="fill:#a3a3a3; stroke:none;" d="M13 90L14 91L13 90z"/>
<path style="fill:#6d6d6d; stroke:none;" d="M13 91L14 92L13 91z"/>
<path style="fill:#dbdbdb; stroke:none;" d="M284 94C286.89 95.2129 289.874 94.9983 293 95C290.11 93.7871 287.126 94.0017 284 94z"/>
<path style="fill:#d5d5d5; stroke:none;" d="M417 94C418.769 94.7789 420.036 94.9124 422 95C420.231 94.2211 418.964 94.0876 417 94z"/>
<path style="fill:#e6e6e6; stroke:none;" d="M422 94C424.332 94.9845 426.457 94.9813 429 95C426.668 94.0154 424.543 94.0187 422 94z"/>
<path style="fill:#b8b8b8; stroke:none;" d="M14 95L15 96L14 95z"/>
<path style="fill:#dcdcdc; stroke:none;" d="M246 95C248.89 96.213 251.874 95.9983 255 96C252.11 94.7871 249.126 95.0017 246 95z"/>
<path style="fill:#b8b8b8; stroke:none;" d="M255 95C257.613 96.0977 260.164 95.9928 263 96C260.387 94.9023 257.836 95.0072 255 95z"/>
<path style="fill:#9e9e9e; stroke:none;" d="M263 95C264.769 95.7789 266.036 95.9124 268 96C266.231 95.2211 264.964 95.0876 263 95z"/>
<path style="fill:#808080; stroke:none;" d="M268 95C272.471 96.8763 278.183 96 283 96C278.529 94.1237 272.817 95 268 95z"/>
<path style="fill:#545454; stroke:none;" d="M283 95C286.163 96.3274 289.586 95.9996 293 96C289.837 94.6726 286.414 95.0004 283 95z"/>
<path style="fill:#9c9c9c; stroke:none;" d="M293 95L293 101C293.951 98.7147 293.951 97.2852 293 95z"/>
<path style="fill:#8c8c8c; stroke:none;" d="M416 95L416 101C416.951 98.7147 416.951 97.2853 416 95z"/>
<path style="fill:#595959; stroke:none;" d="M417 95C419.052 95.8742 420.747 95.9528 423 96C420.948 95.1258 419.253 95.0472 417 95z"/>
<path style="fill:#6a6a6a; stroke:none;" d="M423 95C425.332 95.9845 427.457 95.9813 430 96C427.668 95.0155 425.543 95.0187 423 95z"/>
<path style="fill:#808080; stroke:none;" d="M430 95C433.697 96.5515 438.017 96 442 96C438.303 94.4485 433.983 95 430 95z"/>
<path style="fill:#959595; stroke:none;" d="M442 95C443.769 95.779 445.036 95.9124 447 96C445.231 95.2211 443.964 95.0876 442 95z"/>
<path style="fill:#a6a6a6; stroke:none;" d="M447 95C449.332 95.9845 451.457 95.9813 454 96C451.668 95.0154 449.543 95.0187 447 95z"/>
<path style="fill:#bebebe; stroke:none;" d="M454 95C456.332 95.9845 458.457 95.9813 461 96C458.668 95.0154 456.543 95.0187 454 95z"/>
<path style="fill:#d6d6d6; stroke:none;" d="M461 95C463.331 95.9845 465.457 95.9813 468 96C465.668 95.0154 463.543 95.0187 461 95z"/>
<path style="fill:#eeeeee; stroke:none;" d="M468 95C470.332 95.9845 472.457 95.9813 475 96C472.668 95.0154 470.543 95.0187 468 95z"/>
<path style="fill:#818181; stroke:none;" d="M14 96L15 97L14 96z"/>
<path style="fill:#b6b6b6; stroke:none;" d="M219 96C221.052 96.8742 222.747 96.9528 225 97C222.948 96.1258 221.253 96.0472 219 96z"/>
<path style="fill:#9f9f9f; stroke:none;" d="M225 96C227.052 96.8743 228.747 96.9528 231 97C228.948 96.1258 227.253 96.0472 225 96z"/>
<path style="fill:#808080; stroke:none;" d="M231 96C235.471 97.8763 241.183 97 246 97C241.529 95.1237 235.817 96 231 96z"/>
<path style="fill:#5c5c5c; stroke:none;" d="M246 96C248.89 97.213 251.874 96.9983 255 97C252.11 95.7871 249.126 96.0017 246 96z"/>
<path style="fill:#393939; stroke:none;" d="M255 96C257.052 96.8742 258.747 96.9528 261 97C258.948 96.1258 257.253 96.0472 255 96z"/>
<path style="fill:#222222; stroke:none;" d="M261 96C263.052 96.8742 264.747 96.9528 267 97C264.948 96.1258 263.253 96.0472 261 96z"/>
<path style="fill:#000000; stroke:none;" d="M229 98C235.194 100.599 244.314 99 251 99C265.042 99 278.943 100 293 100L293 96C280.289 96 267.662 97 255 97C246.688 97 236.999 95.6357 229 98M417 96L417 100C440.345 100 463.69 98.4812 487 98C480.564 95.2993 470.951 97 464 97C448.283 97 432.722 96 417 96z"/>
<path style="fill:#121212; stroke:none;" d="M441 96C443.332 96.9845 445.457 96.9813 448 97C445.668 96.0154 443.543 96.0187 441 96z"/>
<path style="fill:#2a2a2a; stroke:none;" d="M448 96C450.332 96.9845 452.457 96.9813 455 97C452.668 96.0154 450.543 96.0187 448 96z"/>
<path style="fill:#424242; stroke:none;" d="M455 96C457.332 96.9845 459.457 96.9813 462 97C459.668 96.0154 457.543 96.0187 455 96z"/>
<path style="fill:#5a5a5a; stroke:none;" d="M462 96C464.332 96.9845 466.457 96.9813 469 97C466.668 96.0154 464.543 96.0187 462 96z"/>
<path style="fill:#808080; stroke:none;" d="M469 96C474.959 98.5005 483.564 97 490 97C484.041 94.4995 475.436 96 469 96z"/>
<path style="fill:#a7a7a7; stroke:none;" d="M490 96C492.332 96.9845 494.457 96.9813 497 97C494.668 96.0154 492.543 96.0187 490 96z"/>
<path style="fill:#bfbfbf; stroke:none;" d="M497 96C499.613 97.0977 502.164 96.9928 505 97C502.387 95.9023 499.835 96.0072 497 96z"/>
<path style="fill:#4b4b4b; stroke:none;" d="M14 97L15 98L14 97z"/>
<path style="fill:#353535; stroke:none;" d="M219 97L219 99C222.801 98.9996 226.343 99.0809 230 98C226.568 96.5597 222.7 97 219 97z"/>
<path style="fill:#212121; stroke:none;" d="M480 98C484.461 99.8713 489.321 98.3693 494 98C489.652 96.1926 484.622 97.9046 480 98z"/>
<path style="fill:#323232; stroke:none;" d="M489 98C492.803 99.551 496.969 98.1731 501 98C497.135 96.3935 493.07 97.6788 489 98z"/>
<path style="fill:#4a4a4a; stroke:none;" d="M501 97C502.506 97.683 503.315 97.8259 505 98C503.494 97.317 502.685 97.1741 501 97z"/>
<path style="fill:#e4e4e4; stroke:none;" d="M218.333 98.6667C218.278 98.7221 218.222 99.7778 218.667 99.3333C218.722 99.2776 218.778 98.2223 218.333 98.6667z"/>
<path style="fill:#b4b4b4; stroke:none;" d="M219 99C221.052 99.8742 222.747 99.9528 225 100C222.948 99.1258 221.253 99.0472 219 99z"/>
<path style="fill:#9b9b9b; stroke:none;" d="M225 99C227.89 100.213 230.874 99.9983 234 100C231.11 98.787 228.126 99.0017 225 99z"/>
<path style="fill:#808080; stroke:none;" d="M234 99C238.217 100.769 243.459 100 248 100C243.783 98.2307 238.541 99 234 99z"/>
<path style="fill:#5b5b5b; stroke:none;" d="M248 99C250.052 99.8742 251.747 99.9528 254 100C251.948 99.1258 250.253 99.0472 248 99z"/>
<path style="fill:#424242; stroke:none;" d="M254 99C256.052 99.8742 257.747 99.9528 260 100C257.948 99.1258 256.253 99.0472 254 99z"/>
<path style="fill:#2f2f2f; stroke:none;" d="M260 99C261.769 99.7789 263.036 99.9124 265 100C263.231 99.2211 261.964 99.0876 260 99z"/>
<path style="fill:#1c1c1c; stroke:none;" d="M265 99C266.769 99.7789 268.036 99.9124 270 100C268.231 99.2211 266.964 99.0876 265 99z"/>
<path style="fill:#202020; stroke:none;" d="M439 99C441.89 100.213 444.874 99.9983 448 100C445.11 98.7871 442.126 99.0017 439 99z"/>
<path style="fill:#414141; stroke:none;" d="M448 99C450.89 100.213 453.874 99.9983 457 100C454.11 98.7871 451.126 99.0017 448 99z"/>
<path style="fill:#5e5e5e; stroke:none;" d="M457 99C459.613 100.098 462.165 99.9928 465 100C462.387 98.9023 459.836 99.0072 457 99z"/>
<path style="fill:#808080; stroke:none;" d="M465 99C468.697 100.552 473.017 100 477 100C473.303 98.4485 468.983 99 465 99z"/>
<path style="fill:#919191; stroke:none;" d="M477 99C479.613 100.098 482.164 99.9928 485 100C482.387 98.9023 479.836 99.0072 477 99z"/>
<path style="fill:#b3b3b3; stroke:none;" d="M485 99C487.89 100.213 490.874 99.9983 494 100C491.11 98.7871 488.126 99.0017 485 99z"/>
<path style="fill:#a4a4a4; stroke:none;" d="M494 99L494 164C496.085 159.031 495 152.35 495 147L495 115C495 109.92 495.981 103.72 494 99z"/>
<path style="fill:#cccccc; stroke:none;" d="M15 100L16 101L15 100z"/>
<path style="fill:#dadada; stroke:none;" d="M248 100C250.89 101.213 253.874 100.998 257 101C254.11 99.787 251.126 100.002 248 100z"/>
<path style="fill:#bababa; stroke:none;" d="M257 100C258.769 100.779 260.036 100.912 262 101C260.231 100.221 258.964 100.088 257 100z"/>
<path style="fill:#a3a3a3; stroke:none;" d="M262 100C264.052 100.874 265.747 100.953 268 101C265.948 100.126 264.253 100.047 262 100z"/>
<path style="fill:#808080; stroke:none;" d="M268 100C272.471 101.876 278.183 101 283 101C278.529 99.1237 272.817 100 268 100z"/>
<path style="fill:#5d5d5d; stroke:none;" d="M283 100C286.163 101.327 289.586 101 293 101C289.837 99.6726 286.414 100 283 100z"/>
<path style="fill:#646464; stroke:none;" d="M417 100C419.89 101.213 422.874 100.998 426 101C423.11 99.787 420.126 100.002 417 100z"/>
<path style="fill:#808080; stroke:none;" d="M426 100C429.163 101.327 432.586 101 436 101C432.837 99.6726 429.414 100 426 100z"/>
<path style="fill:#909090; stroke:none;" d="M436 100C438.613 101.098 441.164 100.993 444 101C441.387 99.9023 438.836 100.007 436 100z"/>
<path style="fill:#b2b2b2; stroke:none;" d="M444 100C446.89 101.213 449.874 100.998 453 101C450.11 99.7871 447.126 100.002 444 100z"/>
<path style="fill:#d3d3d3; stroke:none;" d="M453 100C455.89 101.213 458.874 100.998 462 101C459.11 99.787 456.126 100.002 453 100z"/>
<path style="fill:#959595; stroke:none;" d="M15 101L16 102L15 101z"/>
<path style="fill:#dddddd; stroke:none;" d="M286 101C288.613 102.098 291.165 101.993 294 102C291.387 100.902 288.836 101.007 286 101z"/>
<path style="fill:#e4e4e4; stroke:none;" d="M417 101C419.89 102.213 422.874 101.998 426 102C423.11 100.787 420.126 101.002 417 101z"/>
<path style="fill:#5e5e5e; stroke:none;" d="M15 102L16 103L15 102z"/>
<path style="fill:#cdcdcd; stroke:none;" d="M217 102C216.307 108.2 217 114.737 217 121C219.02 116.187 219.02 106.813 217 102z"/>
<path style="fill:#717171; stroke:none;" d="M216 105L217 106L216 105z"/>
<path style="fill:#a9a9a9; stroke:none;" d="M16 106L17 107L16 106z"/>
<path style="fill:#000000; stroke:none;" d="M216 106C211.381 125.968 203.341 145.513 197 165C228.989 165 260.98 167 293 167L293 163C267.624 163 242.382 165 217 165L217 125C217 119.113 218.292 111.462 216 106z"/>
<path style="fill:#727272; stroke:none;" d="M16 107L17 108L16 107z"/>
<path style="fill:#3c3c3c; stroke:none;" d="M16 108L17 109L16 108z"/>
<path style="fill:#767676; stroke:none;" d="M215 108L216 109L215 108z"/>
<path style="fill:#bdbdbd; stroke:none;" d="M17 111L18 112L17 111z"/>
<path style="fill:#7a7a7a; stroke:none;" d="M214 111L215 112L214 111z"/>
<path style="fill:#868686; stroke:none;" d="M17 112L18 113L17 112z"/>
<path style="fill:#4f4f4f; stroke:none;" d="M17 113L18 114L17 113z"/>
<path style="fill:#7f7f7f; stroke:none;" d="M213 114L214 115L213 114z"/>
<path style="fill:#d2d2d2; stroke:none;" d="M18 116L19 117L18 116z"/>
<path style="fill:#9a9a9a; stroke:none;" d="M18 117L19 118L18 117z"/>
<path style="fill:#848484; stroke:none;" d="M212 117L213 118L212 117z"/>
<path style="fill:#636363; stroke:none;" d="M18 118L19 119L18 118z"/>
<path style="fill:#898989; stroke:none;" d="M211 120L212 121L211 120z"/>
<path style="fill:#b8b8b8; stroke:none;" d="M217 121L217 139C218.952 134.349 218.952 125.651 217 121z"/>
<path style="fill:#afafaf; stroke:none;" d="M19 122L20 123L19 122z"/>
<path style="fill:#777777; stroke:none;" d="M19 123L20 124L19 123z"/>
<path style="fill:#8f8f8f; stroke:none;" d="M210 123L211 124L210 123z"/>
<path style="fill:#404040; stroke:none;" d="M19 124L20 125L19 124z"/>
<path style="fill:#949494; stroke:none;" d="M209 126L210 127L209 126z"/>
<path style="fill:#c3c3c3; stroke:none;" d="M20 127L21 128L20 127z"/>
<path style="fill:#8b8b8b; stroke:none;" d="M20 128L21 129L20 128z"/>
<path style="fill:#545454; stroke:none;" d="M20 129L21 130L20 129z"/>
<path style="fill:#9a9a9a; stroke:none;" d="M208 129L209 130L208 129z"/>
<path style="fill:#2c2c2c; stroke:none;" d="M208 130L209 131L208 130z"/>
<path style="fill:#9f9f9f; stroke:none;" d="M207 132L208 133L207 132z"/>
<path style="fill:#a0a0a0; stroke:none;" d="M21 133L22 134L21 133z"/>
<path style="fill:#303030; stroke:none;" d="M207 133L208 134L207 133z"/>
<path style="fill:#686868; stroke:none;" d="M21 134L22 135L21 134z"/>
<path style="fill:#a5a5a5; stroke:none;" d="M206 135L207 136L206 135z"/>
<path style="fill:#353535; stroke:none;" d="M206 136L207 137L206 136z"/>
<path style="fill:#b4b4b4; stroke:none;" d="M22 138L23 139L22 138z"/>
<path style="fill:#ababab; stroke:none;" d="M205 138L206 139L205 138z"/>
<path style="fill:#7d7d7d; stroke:none;" d="M22 139L23 140L22 139z"/>
<path style="fill:#3b3b3b; stroke:none;" d="M205 139L206 140L205 139z"/>
<path style="fill:#9d9d9d; stroke:none;" d="M217 139L217 153C218.667 149.028 218.667 142.972 217 139z"/>
<path style="fill:#454545; stroke:none;" d="M22 140L23 141L22 140z"/>
<path style="fill:#b0b0b0; stroke:none;" d="M204 141L205 142L204 141z"/>
<path style="fill:#424242; stroke:none;" d="M204 142L205 143L204 142z"/>
<path style="fill:#c9c9c9; stroke:none;" d="M23 143L24 144L23 143z"/>
<path style="fill:#919191; stroke:none;" d="M23 144L24 145L23 144z"/>
<path style="fill:#b6b6b6; stroke:none;" d="M203 144L204 145L203 144z"/>
<path style="fill:#595959; stroke:none;" d="M23 145L24 146L23 145z"/>
<path style="fill:#484848; stroke:none;" d="M203 145L204 146L203 145z"/>
<path style="fill:#bbbbbb; stroke:none;" d="M202 147L203 148L202 147z"/>
<path style="fill:#4f4f4f; stroke:none;" d="M202 148L203 149L202 148z"/>
<path style="fill:#a5a5a5; stroke:none;" d="M24 149L25 150L24 149z"/>
<path style="fill:#6e6e6e; stroke:none;" d="M24 150L25 151L24 150z"/>
<path style="fill:#c1c1c1; stroke:none;" d="M201 150L202 151L201 150z"/>
<path style="fill:#555555; stroke:none;" d="M201 151L202 152L201 151z"/>
<path style="fill:#c6c6c6; stroke:none;" d="M200 153L201 154L200 153z"/>
<path style="fill:#8f8f8f; stroke:none;" d="M217 153L217 164C218.431 160.59 218.431 156.41 217 153z"/>
<path style="fill:#bababa; stroke:none;" d="M25 154L26 155L25 154z"/>
<path style="fill:#5c5c5c; stroke:none;" d="M200 154L201 155L200 154z"/>
<path style="fill:#828282; stroke:none;" d="M25 155L26 156L25 155z"/>
<path style="fill:#4b4b4b; stroke:none;" d="M25 156L26 157L25 156z"/>
<path style="fill:#c9c9c9; stroke:none;" d="M199 156L200 157L199 156z"/>
<path style="fill:#626262; stroke:none;" d="M199 157L200 158L199 157z"/>
<path style="fill:#cecece; stroke:none;" d="M26 159L27 160L26 159z"/>
<path style="fill:#cdcdcd; stroke:none;" d="M198 159L199 160L198 159z"/>
<path style="fill:#979797; stroke:none;" d="M26 160L27 161L26 160z"/>
<path style="fill:#696969; stroke:none;" d="M198 160L199 161L198 160z"/>
<path style="fill:#5f5f5f; stroke:none;" d="M26 161L27 162L26 161z"/>
<path style="fill:#d4d4d4; stroke:none;" d="M286 161C288.613 162.098 291.165 161.993 294 162C291.387 160.902 288.836 161.007 286 161z"/>
<path style="fill:#dedede; stroke:none;" d="M417 161C419.89 162.213 422.874 161.998 426 162C423.11 160.787 420.126 161.002 417 161z"/>
<path style="fill:#d0d0d0; stroke:none;" d="M197 162L198 163L197 162z"/>
<path style="fill:#e0e0e0; stroke:none;" d="M254 162C256.89 163.213 259.874 162.998 263 163C260.11 161.787 257.126 162.002 254 162z"/>
<path style="fill:#b3b3b3; stroke:none;" d="M263 162C265.052 162.874 266.747 162.953 269 163C266.948 162.126 265.253 162.047 263 162z"/>
<path style="fill:#949494; stroke:none;" d="M269 162C271.052 162.874 272.747 162.953 275 163C272.948 162.126 271.253 162.047 269 162z"/>
<path style="fill:#808080; stroke:none;" d="M275 162C278.432 163.44 282.3 163 286 163C282.568 161.56 278.7 162 275 162z"/>
<path style="fill:#555555; stroke:none;" d="M286 162C288.332 162.985 290.457 162.981 293 163C290.668 162.015 288.543 162.019 286 162z"/>
<path style="fill:#9c9c9c; stroke:none;" d="M293 162L293 168C293.951 165.715 293.951 164.285 293 162z"/>
<path style="fill:#8c8c8c; stroke:none;" d="M416 162L416 168C416.951 165.715 416.951 164.285 416 162z"/>
<path style="fill:#5f5f5f; stroke:none;" d="M417 162C419.89 163.213 422.874 162.998 426 163C423.11 161.787 420.126 162.002 417 162z"/>
<path style="fill:#808080; stroke:none;" d="M426 162C429.432 163.44 433.3 163 437 163C433.568 161.56 429.7 162 426 162z"/>
<path style="fill:#aaaaaa; stroke:none;" d="M437 162C439.89 163.213 442.874 162.998 446 163C443.11 161.787 440.126 162.002 437 162z"/>
<path style="fill:#d7d7d7; stroke:none;" d="M446 162C448.052 162.874 449.747 162.953 452 163C449.948 162.126 448.253 162.047 446 162z"/>
<path style="fill:#6f6f6f; stroke:none;" d="M197 163L198 164L197 163z"/>
<path style="fill:#d3d3d3; stroke:none;" d="M227 163C229.89 164.213 232.874 163.998 236 164C233.11 162.787 230.126 163.002 227 163z"/>
<path style="fill:#a5a5a5; stroke:none;" d="M236 163C238.89 164.213 241.874 163.998 245 164C242.11 162.787 239.126 163.002 236 163z"/>
<path style="fill:#808080; stroke:none;" d="M245 163C248.432 164.44 252.3 164 256 164C252.568 162.56 248.7 163 245 163z"/>
<path style="fill:#575757; stroke:none;" d="M256 163C258.052 163.874 259.747 163.953 262 164C259.948 163.126 258.253 163.047 256 163z"/>
<path style="fill:#383838; stroke:none;" d="M262 163C264.89 164.213 267.874 163.998 271 164C268.11 162.787 265.126 163.002 262 163z"/>
<path style="fill:#000000; stroke:none;" d="M417 163L417 167L492 166C485.845 163.417 477.611 165.363 471 164.91C453.08 163.683 434.983 163 417 163z"/>
<path style="fill:#2b2b2b; stroke:none;" d="M437 163C439.052 163.874 440.747 163.953 443 164C440.948 163.126 439.253 163.047 437 163z"/>
<path style="fill:#434343; stroke:none;" d="M443 163C445.613 164.098 448.164 163.993 451 164C448.387 162.902 445.836 163.007 443 163z"/>
<path style="fill:#808080; stroke:none;" d="M451 163C455.724 164.982 461.91 164 467 164C462.276 162.018 456.09 163 451 163z"/>
<path style="fill:#a8a8a8; stroke:none;" d="M467 163C469.89 164.213 472.874 163.998 476 164C473.11 162.787 470.126 163.002 467 163z"/>
<path style="fill:#cfcfcf; stroke:none;" d="M476 163C478.613 164.098 481.164 163.993 484 164C481.387 162.902 478.836 163.007 476 163z"/>
<path style="fill:#464646; stroke:none;" d="M217 164L218 165L217 164z"/>
<path style="fill:#808080; stroke:none;" d="M218 164C220.89 165.213 223.874 164.998 227 165C224.11 163.787 221.126 164.002 218 164z"/>
<path style="fill:#535353; stroke:none;" d="M227 164C229.89 165.213 232.874 164.998 236 165C233.11 163.787 230.126 164.002 227 164z"/>
<path style="fill:#262626; stroke:none;" d="M236 164C238.052 164.874 239.747 164.953 242 165C239.948 164.126 238.253 164.047 236 164z"/>
<path style="fill:#292929; stroke:none;" d="M467 164C469.89 165.213 472.874 164.998 476 165C473.11 163.787 470.126 164.002 467 164z"/>
<path style="fill:#555555; stroke:none;" d="M476 164C478.052 164.874 479.747 164.953 482 165C479.948 164.126 478.253 164.047 476 164z"/>
<path style="fill:#808080; stroke:none;" d="M482 164C485.959 165.661 490.737 165 495 165C491.041 163.339 486.263 164 482 164z"/>
<path style="fill:#ababab; stroke:none;" d="M27 165L28 166L27 165z"/>
<path style="fill:#3f3f3f; stroke:none;" d="M197 165C199.332 165.985 201.457 165.981 204 166C201.668 165.015 199.543 165.019 197 165z"/>
<path style="fill:#272727; stroke:none;" d="M204 165C205.769 165.779 207.036 165.912 209 166C207.231 165.221 205.964 165.088 204 165z"/>
<path style="fill:#161616; stroke:none;" d="M209 165C210.769 165.779 212.036 165.912 214 166C212.231 165.221 210.964 165.088 209 165z"/>
<path style="fill:#171717; stroke:none;" d="M492 165C493.769 165.779 495.036 165.912 497 166C495.231 165.221 493.964 165.088 492 165z"/>
<path style="fill:#2a2a2a; stroke:none;" d="M497 165C499.613 166.098 502.164 165.993 505 166C502.387 164.902 499.835 165.007 497 165z"/>
<path style="fill:#444444; stroke:none;" d="M505 165C507.052 165.874 508.747 165.953 511 166C508.948 165.126 507.253 165.047 505 165z"/>
<path style="fill:#737373; stroke:none;" d="M27 166L28 167L27 166z"/>
<path style="fill:#bbbbbb; stroke:none;" d="M197 166C199.052 166.874 200.747 166.953 203 167C200.948 166.126 199.253 166.047 197 166z"/>
<path style="fill:#aaaaaa; stroke:none;" d="M203 166C205.332 166.985 207.457 166.981 210 167C207.668 166.015 205.543 166.019 203 166z"/>
<path style="fill:#929292; stroke:none;" d="M210 166C212.613 167.098 215.165 166.993 218 167C215.387 165.902 212.835 166.007 210 166z"/>
<path style="fill:#808080; stroke:none;" d="M218 166C222.217 167.769 227.459 167 232 167C227.783 165.231 222.541 166 218 166z"/>
<path style="fill:#676767; stroke:none;" d="M232 166C234.332 166.985 236.457 166.981 239 167C236.668 166.015 234.543 166.019 232 166z"/>
<path style="fill:#4f4f4f; stroke:none;" d="M239 166C241.332 166.985 243.457 166.981 246 167C243.668 166.015 241.543 166.019 239 166z"/>
<path style="fill:#353535; stroke:none;" d="M246 166C248.613 167.098 251.164 166.993 254 167C251.387 165.902 248.835 166.007 246 166z"/>
<path style="fill:#1c1c1c; stroke:none;" d="M254 166C256.613 167.098 259.164 166.993 262 167C259.387 165.902 256.835 166.007 254 166z"/>
<path style="fill:#1f1f1f; stroke:none;" d="M448 166C449.769 166.779 451.036 166.912 453 167C451.231 166.221 449.964 166.088 448 166z"/>
<path style="fill:#323232; stroke:none;" d="M453 166C455.89 167.213 458.874 166.998 462 167C459.11 165.787 456.126 166.002 453 166z"/>
<path style="fill:#4f4f4f; stroke:none;" d="M462 166C464.613 167.098 467.164 166.993 470 167C467.387 165.902 464.836 166.007 462 166z"/>
<path style="fill:#666666; stroke:none;" d="M470 166C471.769 166.779 473.036 166.912 475 167C473.231 166.221 471.964 166.088 470 166z"/>
<path style="fill:#808080; stroke:none;" d="M475 166C479.471 167.876 485.183 167 490 167C485.529 165.124 479.817 166 475 166z"/>
<path style="fill:#939393; stroke:none;" d="M490 166C492.613 167.098 495.164 166.993 498 167C495.387 165.902 492.836 166.007 490 166z"/>
<path style="fill:#a3a3a3; stroke:none;" d="M498 166C501.698 167.552 506.017 167 510 167L510 242C512.802 235.322 511 225.216 511 218L511 166L498 166z"/>
<path style="fill:#3c3c3c; stroke:none;" d="M27 167L28 168L27 167z"/>
<path style="fill:#a8a8a8; stroke:none;" d="M168 167L169 168L168 167z"/>
<path style="fill:#eaeaea; stroke:none;" d="M230 167C232.332 167.985 234.457 167.981 237 168C234.668 167.015 232.543 167.019 230 167z"/>
<path style="fill:#d2d2d2; stroke:none;" d="M237 167C239.613 168.098 242.164 167.993 245 168C242.387 166.902 239.835 167.007 237 167z"/>
<path style="fill:#b7b7b7; stroke:none;" d="M245 167C247.89 168.213 250.874 167.998 254 168C251.11 166.787 248.126 167.002 245 167z"/>
<path style="fill:#808080; stroke:none;" d="M254 167C261.409 170.109 272.975 168 281 168C273.591 164.891 262.025 167 254 167z"/>
<path style="fill:#5d5d5d; stroke:none;" d="M281 167C283.052 167.874 284.747 167.953 287 168C284.948 167.126 283.253 167.047 281 167z"/>
<path style="fill:#4a4a4a; stroke:none;" d="M287 167C289.052 167.874 290.747 167.953 293 168C290.948 167.126 289.253 167.047 287 167z"/>
<path style="fill:#515151; stroke:none;" d="M417 167C418.769 167.779 420.036 167.912 422 168C420.231 167.221 418.964 167.088 417 167z"/>
<path style="fill:#646464; stroke:none;" d="M422 167C424.613 168.098 427.165 167.993 430 168C427.387 166.902 424.836 167.007 422 167z"/>
<path style="fill:#808080; stroke:none;" d="M430 167C434.724 168.982 440.91 168 446 168C441.276 166.018 435.09 167 430 167z"/>
<path style="fill:#9b9b9b; stroke:none;" d="M446 167C448.89 168.213 451.874 167.998 455 168C452.11 166.787 449.126 167.002 446 167z"/>
<path style="fill:#b8b8b8; stroke:none;" d="M455 167C457.89 168.213 460.874 167.998 464 168C461.11 166.787 458.126 167.002 455 167z"/>
<path style="fill:#d5d5d5; stroke:none;" d="M464 167C466.613 168.098 469.164 167.993 472 168C469.387 166.902 466.836 167.007 464 167z"/>
<path style="fill:#ececec; stroke:none;" d="M472 167C473.769 167.779 475.036 167.912 477 168C475.231 167.221 473.964 167.088 472 167z"/>
<path style="fill:#000000; stroke:none;" d="M168 168L168 179L193 179C186.152 173.823 175.959 171.265 168 168z"/>
<path style="fill:#898989; stroke:none;" d="M169.667 168.333C169.222 168.778 170.278 168.722 170.333 168.667C170.778 168.222 169.722 168.278 169.667 168.333z"/>
<path style="fill:#c7c7c7; stroke:none;" d="M171 168L172 169L171 168z"/>
<path style="fill:#e3e3e3; stroke:none;" d="M279 168C281.052 168.874 282.747 168.953 285 169C282.948 168.126 281.253 168.047 279 168z"/>
<path style="fill:#d0d0d0; stroke:none;" d="M285 168C287.613 169.098 290.165 168.993 293 169C290.387 167.902 287.836 168.007 285 168z"/>
<path style="fill:#e4e4e4; stroke:none;" d="M417 168C420.432 169.44 424.3 169 428 169C424.568 167.56 420.7 168 417 168z"/>
<path style="fill:#474747; stroke:none;" d="M171 169L172 170L171 169z"/>
<path style="fill:#808080; stroke:none;" d="M172 169L173 170L172 169z"/>
<path style="fill:#acacac; stroke:none;" d="M173 169L174 170L173 169z"/>
<path style="fill:#c0c0c0; stroke:none;" d="M28 170L29 171L28 170z"/>
<path style="fill:#828282; stroke:none;" d="M50 170C51.2485 170.685 51.5483 170.749 53 171C51.7517 170.315 51.4515 170.251 50 170z"/>
<path style="fill:#a0a0a0; stroke:none;" d="M53 170L53 180C54.3457 176.793 54.3457 173.207 53 170z"/>
<path style="fill:#2c2c2c; stroke:none;" d="M173 170L174 171L173 170z"/>
<path style="fill:#909090; stroke:none;" d="M174.667 170.333C174.222 170.778 175.278 170.722 175.333 170.667C175.778 170.222 174.722 170.278 174.667 170.333z"/>
<path style="fill:#cecece; stroke:none;" d="M176 170L177 171L176 170z"/>
<path style="fill:#909090; stroke:none;" d="M195 170L196 171L195 170z"/>
<path style="fill:#888888; stroke:none;" d="M28 171L29 172L28 171z"/>
<path style="fill:#8f8f8f; stroke:none;" d="M46 171C47.2484 171.685 47.5483 171.749 49 172C47.7517 171.315 47.4515 171.251 46 171z"/>
<path style="fill:#2c2c2c; stroke:none;" d="M49.6667 171.333C49.2222 171.778 50.2778 171.722 50.3333 171.667C50.7778 171.222 49.7222 171.278 49.6667 171.333z"/>
<path style="fill:#4f4f4f; stroke:none;" d="M176 171L177 172L176 171z"/>
<path style="fill:#808080; stroke:none;" d="M177 171L178 172L177 171z"/>
<path style="fill:#b3b3b3; stroke:none;" d="M178 171L179 172L178 171z"/>
<path style="fill:#050505; stroke:none;" d="M195 171L194 179C196.476 176.837 196.223 173.92 195 171z"/>
<path style="fill:#505050; stroke:none;" d="M28 172L29 173L28 172z"/>
<path style="fill:#9b9b9b; stroke:none;" d="M42 172C43.2484 172.685 43.5483 172.749 45 173C43.7518 172.315 43.4515 172.251 42 172z"/>
<path style="fill:#383838; stroke:none;" d="M45.6667 172.333C45.2222 172.778 46.2778 172.722 46.3333 172.667C46.7778 172.222 45.7222 172.278 45.6667 172.333z"/>
<path style="fill:#343434; stroke:none;" d="M178 172L179 173L178 172z"/>
<path style="fill:#989898; stroke:none;" d="M179.667 172.333C179.222 172.778 180.278 172.722 180.333 172.667C180.778 172.222 179.722 172.278 179.667 172.333z"/>
<path style="fill:#d4d4d4; stroke:none;" d="M181 172L182 173L181 172z"/>
<path style="fill:#a8a8a8; stroke:none;" d="M38.6667 173.333C38.2222 173.778 39.2778 173.722 39.3333 173.667C39.7778 173.222 38.7222 173.278 38.6667 173.333z"/>
<path style="fill:#6d6d6d; stroke:none;" d="M40.6667 173.333C40.2222 173.778 41.2778 173.722 41.3333 173.667C41.7778 173.222 40.7222 173.278 40.6667 173.333z"/>
<path style="fill:#1c1c1c; stroke:none;" d="M42.6667 173.333C42.2222 173.778 43.2778 173.722 43.3333 173.667C43.7778 173.222 42.7222 173.278 42.6667 173.333z"/>
<path style="fill:#555555; stroke:none;" d="M181 173L182 174L181 173z"/>
<path style="fill:#808080; stroke:none;" d="M182 173L183 174L182 173z"/>
<path style="fill:#bababa; stroke:none;" d="M183 173L184 174L183 173z"/>
<path style="fill:#cfcfcf; stroke:none;" d="M194 173L195 174L194 173z"/>
<path style="fill:#8c8c8c; stroke:none;" d="M35 174C36.2485 174.685 36.5483 174.749 38 175C36.7517 174.315 36.4515 174.251 35 174z"/>
<path style="fill:#282828; stroke:none;" d="M38.6667 174.333C38.2222 174.778 39.2778 174.722 39.3333 174.667C39.7778 174.222 38.7222 174.278 38.6667 174.333z"/>
<path style="fill:#3b3b3b; stroke:none;" d="M183 174L184 175L183 174z"/>
<path style="fill:#757575; stroke:none;" d="M184 174L185 175L184 174z"/>
<path style="fill:#a0a0a0; stroke:none;" d="M185 174L186 175L185 174z"/>
<path style="fill:#7a7a7a; stroke:none;" d="M194 174L195 175L194 174z"/>
<path style="fill:#999999; stroke:none;" d="M31 175C32.2484 175.685 32.5483 175.749 34 176C32.7517 175.315 32.4515 175.251 31 175z"/>
<path style="fill:#353535; stroke:none;" d="M34.6667 175.333C34.2222 175.778 35.2778 175.722 35.3333 175.667C35.7777 175.222 34.7222 175.278 34.6667 175.333z"/>
<path style="fill:#848484; stroke:none;" d="M186.667 175.333C186.222 175.778 187.278 175.722 187.333 175.667C187.778 175.222 186.722 175.278 186.667 175.333z"/>
<path style="fill:#c0c0c0; stroke:none;" d="M188 175L189 176L188 175z"/>
<path style="fill:#303030; stroke:none;" d="M194 175L195 176L194 175z"/>
<path style="fill:#696969; stroke:none;" d="M29 176C30.2484 176.685 30.5483 176.749 32 177C30.7517 176.315 30.4515 176.251 29 176z"/>
<path style="fill:#404040; stroke:none;" d="M188 176L189 177L188 176z"/>
<path style="fill:#7a7a7a; stroke:none;" d="M189 176L190 177L189 176z"/>
<path style="fill:#a6a6a6; stroke:none;" d="M190 176L191 177L190 176z"/>
<path style="fill:#363636; stroke:none;" d="M1 177C3.05214 177.874 4.74714 177.953 7 178C4.94787 177.126 3.25285 177.047 1 177z"/>
<path style="fill:#191919; stroke:none;" d="M7 177C8.769 177.779 10.036 177.912 12 178C10.2309 177.221 8.96409 177.088 7 177z"/>
<path style="fill:#606060; stroke:none;" d="M191 177L192 178L191 177z"/>
<path style="fill:#a6a6a6; stroke:none;" d="M192.667 177.333C192.222 177.778 193.278 177.722 193.333 177.667C193.778 177.222 192.722 177.278 192.667 177.333z"/>
<path style="fill:#b5b5b5; stroke:none;" d="M1 178C3.61274 179.098 6.16448 178.993 9 179C6.38732 177.902 3.83547 178.007 1 178z"/>
<path style="fill:#808080; stroke:none;" d="M9 178C12.4324 179.44 16.2998 179 20 179C16.5676 177.56 12.7002 178 9 178z"/>
<path style="fill:#646464; stroke:none;" d="M20 178C21.769 178.779 23.0359 178.912 25 179C23.2309 178.221 21.9641 178.088 20 178z"/>
<path style="fill:#414141; stroke:none;" d="M25 178C27.0521 178.874 28.7472 178.953 31 179C28.9479 178.126 27.2528 178.047 25 178z"/>
<path style="fill:#1e1e1e; stroke:none;" d="M31 178C33.0521 178.874 34.7472 178.953 37 179C34.9479 178.126 33.2528 178.047 31 178z"/>
<path style="fill:#4b4b4b; stroke:none;" d="M168 179C175.649 182.21 187.712 180 196 180C192.872 178.214 189.548 178.96 186 178.996C180.001 179.057 173.999 179 168 179z"/>
<path style="fill:#d2d2d2; stroke:none;" d="M23 179C24.769 179.779 26.0359 179.912 28 180C26.231 179.221 24.9641 179.088 23 179z"/>
<path style="fill:#b5b5b5; stroke:none;" d="M28 179C29.769 179.779 31.0359 179.912 33 180C31.231 179.221 29.9641 179.088 28 179z"/>
<path style="fill:#989898; stroke:none;" d="M33 179C34.7691 179.779 36.0359 179.912 38 180C36.231 179.221 34.9641 179.088 33 179z"/>
<path style="fill:#808080; stroke:none;" d="M38 179C41.4324 180.44 45.2998 180 49 180C45.5676 178.56 41.7002 179 38 179z"/>
<path style="fill:#525252; stroke:none;" d="M49 179C50.506 179.683 51.3148 179.826 53 180C51.4939 179.317 50.6852 179.174 49 179z"/>
<path style="fill:#dddddd; stroke:none;" d="M49 180C50.769 180.779 52.0359 180.912 54 181C52.231 180.221 50.9641 180.088 49 180z"/>
<path style="fill:#cbcbcb; stroke:none;" d="M168 180C175.649 183.21 187.712 181 196 181C188.351 177.79 176.288 180 168 180z"/>
<path style="fill:#c5c5c5; stroke:none;" d="M210 241C217.4 244.105 228.993 242 237 242L298 242L510 242C502.6 238.895 491.007 241 483 241L422 241L210 241z"/>
<path style="fill:#9f9f9f; stroke:none;" d="M209 242L209 247C209.83 244.97 209.83 244.03 209 242z"/>
<path style="fill:#454545; stroke:none;" d="M210 242C217.4 245.105 228.993 243 237 243L298 243L511 243C503.6 239.895 492.007 242 484 242L423 242L210 242z"/>
<path style="fill:#4e4e4e; stroke:none;" d="M210 246C217.4 249.105 228.993 247 237 247L297 247L506 247C498.6 243.895 487.007 246 479 246L419 246L210 246z"/>
<path style="fill:#cdcdcd; stroke:none;" d="M210 247C217.4 250.105 228.993 248 237 248L297 248L505 248C497.6 244.895 486.007 247 478 247L418 247L210 247z"/>
<path style="fill:#a0a0a0; stroke:none;" d="M505 247L505 509C507.292 503.537 506 495.887 506 490L506 451L506 313L506 268C506 261.58 507.497 252.951 505 247z"/>
<path style="fill:#cccccc; stroke:none;" d="M25 283C26.2483 283.685 26.5485 283.749 28 284C26.7516 283.315 26.4516 283.251 25 283z"/>
<path style="fill:#aeaeae; stroke:none;" d="M28 283C29.2483 283.685 29.5485 283.749 31 284C29.7516 283.315 29.4516 283.251 28 283z"/>
<path style="fill:#919191; stroke:none;" d="M31 283C32.2483 283.685 32.5485 283.749 34 284C32.7516 283.315 32.4516 283.251 31 283z"/>
<path style="fill:#b8b8b8; stroke:none;" d="M34.3333 283.667C34.2777 283.722 34.2222 284.778 34.6667 284.333C34.7222 284.278 34.7778 283.222 34.3333 283.667z"/>
<path style="fill:#838383; stroke:none;" d="M183.333 283.667C183.278 283.722 183.222 284.778 183.667 284.333C183.722 284.278 183.778 283.222 183.333 283.667z"/>
<path style="fill:#afafaf; stroke:none;" d="M184 283C185.248 283.685 185.549 283.749 187 284C185.752 283.315 185.452 283.251 184 283z"/>
<path style="fill:#dedede; stroke:none;" d="M187 283C188.248 283.685 188.549 283.749 190 284C188.752 283.315 188.452 283.251 187 283z"/>
<path style="fill:#d1d1d1; stroke:none;" d="M7 284C8.24838 284.685 8.5484 284.749 10 285C8.7517 284.315 8.45152 284.251 7 284z"/>
<path style="fill:#b6b6b6; stroke:none;" d="M10 284C11.2484 284.685 11.5484 284.749 13 285C11.7517 284.315 11.4515 284.251 10 284z"/>
<path style="fill:#9b9b9b; stroke:none;" d="M13 284C14.2484 284.685 14.5484 284.749 16 285C14.7517 284.315 14.4515 284.251 13 284z"/>
<path style="fill:#808080; stroke:none;" d="M16 284C18.8897 285.213 21.8741 284.998 25 285C22.1103 283.787 19.1259 284.002 16 284z"/>
<path style="fill:#393939; stroke:none;" d="M25 284C26.769 284.779 28.0359 284.912 30 285C28.231 284.221 26.9641 284.088 25 284z"/>
<path style="fill:#1c1c1c; stroke:none;" d="M30 284C31.5061 284.683 32.3148 284.826 34 285C32.494 284.317 31.6852 284.174 30 284z"/>
<path style="fill:#2f2f2f; stroke:none;" d="M184 284C185.248 284.685 185.548 284.749 187 285C185.752 284.315 185.452 284.251 184 284z"/>
<path style="fill:#5e5e5e; stroke:none;" d="M187 284C188.248 284.685 188.549 284.749 190 285C188.752 284.315 188.452 284.251 187 284z"/>
<path style="fill:#808080; stroke:none;" d="M190 284C192.052 284.874 193.747 284.953 196 285C193.948 284.126 192.253 284.047 190 284z"/>
<path style="fill:#adadad; stroke:none;" d="M196 284C197.248 284.685 197.549 284.749 199 285C197.752 284.315 197.452 284.251 196 284z"/>
<path style="fill:#cecece; stroke:none;" d="M199 284C200.248 284.685 200.549 284.749 202 285C200.752 284.315 200.452 284.251 199 284z"/>
<path style="fill:#6c6c6c; stroke:none;" d="M1 285C3.05211 285.874 4.74717 285.953 7 286C4.94789 285.126 3.25283 285.047 1 285z"/>
<path style="fill:#515151; stroke:none;" d="M7 285C8.24838 285.685 8.5484 285.749 10 286C8.75168 285.315 8.45154 285.251 7 285z"/>
<path style="fill:#363636; stroke:none;" d="M10 285C11.2484 285.685 11.5484 285.749 13 286C11.7517 285.315 11.4515 285.251 10 285z"/>
<path style="fill:#1b1b1b; stroke:none;" d="M13 285C14.2484 285.685 14.5484 285.749 16 286C14.7517 285.315 14.4515 285.251 13 285z"/>
<path style="fill:#565656; stroke:none;" d="M33 285L34 286L33 285z"/>
<path style="fill:#7b7b7b; stroke:none;" d="M184 285L185 286L184 285z"/>
<path style="fill:#000000; stroke:none;" d="M185 285C190.182 292.296 198.689 299.85 206 305L206 286L185 285z"/>
<path style="fill:#2e2e2e; stroke:none;" d="M196 285C197.248 285.685 197.549 285.749 199 286C197.752 285.315 197.452 285.251 196 285z"/>
<path style="fill:#4f4f4f; stroke:none;" d="M199 285C200.248 285.685 200.549 285.749 202 286C200.752 285.315 200.452 285.251 199 285z"/>
<path style="fill:#808080; stroke:none;" d="M202 285C203.506 285.683 204.315 285.826 206 286C204.494 285.317 203.685 285.174 202 285z"/>
<path style="fill:#c2c2c2; stroke:none;" d="M206 285L207 286L206 285z"/>
<path style="fill:#808080; stroke:none;" d="M185 286L186 287L185 286z"/>
<path style="fill:#858585; stroke:none;" d="M206 286L206 297C207.431 293.59 207.431 289.41 206 286z"/>
<path style="fill:#8d8d8d; stroke:none;" d="M32 287L33 288L32 287z"/>
<path style="fill:#818181; stroke:none;" d="M186 287L187 288L186 287z"/>
<path style="fill:#373737; stroke:none;" d="M31 288L32 289L31 288z"/>
<path style="fill:#898989; stroke:none;" d="M187 288L188 289L187 288z"/>
<path style="fill:#b6b6b6; stroke:none;" d="M31 289L32 290L31 289z"/>
<path style="fill:#919191; stroke:none;" d="M188 289L189 290L188 289z"/>
<path style="fill:#545454; stroke:none;" d="M30 290L31 291L30 290z"/>
<path style="fill:#999999; stroke:none;" d="M189 290L190 291L189 290z"/>
<path style="fill:#d4d4d4; stroke:none;" d="M30 291L31 292L30 291z"/>
<path style="fill:#a2a2a2; stroke:none;" d="M190 291L191 292L190 291z"/>
<path style="fill:#888888; stroke:none;" d="M29 292L30 293L29 292z"/>
<path style="fill:#aaaaaa; stroke:none;" d="M191 292L192 293L191 292z"/>
<path style="fill:#323232; stroke:none;" d="M192 292L193 293L192 292z"/>
<path style="fill:#353535; stroke:none;" d="M28 293L29 294L28 293z"/>
<path style="fill:#b2b2b2; stroke:none;" d="M192 293L193 294L192 293z"/>
<path style="fill:#3a3a3a; stroke:none;" d="M193 293L194 294L193 293z"/>
<path style="fill:#b5b5b5; stroke:none;" d="M28 294L29 295L28 294z"/>
<path style="fill:#bababa; stroke:none;" d="M193 294L194 295L193 294z"/>
<path style="fill:#434343; stroke:none;" d="M194 294L195 295L194 294z"/>
<path style="fill:#535353; stroke:none;" d="M27 295L28 296L27 295z"/>
<path style="fill:#c2c2c2; stroke:none;" d="M194 295L195 296L194 295z"/>
<path style="fill:#4b4b4b; stroke:none;" d="M195 295L196 296L195 295z"/>
<path style="fill:#d2d2d2; stroke:none;" d="M27 296L28 297L27 296z"/>
<path style="fill:#cacaca; stroke:none;" d="M195 296L196 297L195 296z"/>
<path style="fill:#535353; stroke:none;" d="M196 296L197 297L196 296z"/>
<path style="fill:#838383; stroke:none;" d="M26 297L27 298L26 297z"/>
<path style="fill:#d3d3d3; stroke:none;" d="M196 297L197 298L196 297z"/>
<path style="fill:#5b5b5b; stroke:none;" d="M197 297L198 298L197 297z"/>
<path style="fill:#969696; stroke:none;" d="M206 297C205.974 300.122 205.724 302.96 205 306C207.641 303.693 207.296 300.089 206 297z"/>
<path style="fill:#343434; stroke:none;" d="M25 298L26 299L25 298z"/>
<path style="fill:#636363; stroke:none;" d="M198 298L199 299L198 298z"/>
<path style="fill:#b4b4b4; stroke:none;" d="M25 299L26 300L25 299z"/>
<path style="fill:#6c6c6c; stroke:none;" d="M199 299L200 300L199 299z"/>
<path style="fill:#515151; stroke:none;" d="M24 300L25 301L24 300z"/>
<path style="fill:#747474; stroke:none;" d="M200 300L201 301L200 300z"/>
<path style="fill:#d1d1d1; stroke:none;" d="M24 301L25 302L24 301z"/>
<path style="fill:#7c7c7c; stroke:none;" d="M201 301L202 302L201 301z"/>
<path style="fill:#7d7d7d; stroke:none;" d="M23 302L24 303L23 302z"/>
<path style="fill:#808080; stroke:none;" d="M202 302L203 303L202 302z"/>
<path style="fill:#333333; stroke:none;" d="M22 303L23 304L22 303z"/>
<path style="fill:#868686; stroke:none;" d="M203 303L204 304L203 303z"/>
<path style="fill:#b0b0b0; stroke:none;" d="M22 304L23 305L22 304z"/>
<path style="fill:#8e8e8e; stroke:none;" d="M204 304L205 305L204 304z"/>
<path style="fill:#4f4f4f; stroke:none;" d="M21 305L22 306L21 305z"/>
<path style="fill:#cecece; stroke:none;" d="M21 306L22 307L21 306z"/>
<path style="fill:#787878; stroke:none;" d="M20 307L21 308L20 307z"/>
<path style="fill:#313131; stroke:none;" d="M19 308L20 309L19 308z"/>
<path style="fill:#aaaaaa; stroke:none;" d="M19 309L20 310L19 309z"/>
<path style="fill:#4b4b4b; stroke:none;" d="M18 310L19 311L18 310z"/>
<path style="fill:#cacaca; stroke:none;" d="M18 311L19 312L18 311z"/>
<path style="fill:#727272; stroke:none;" d="M17 312L18 313L17 312z"/>
<path style="fill:#cbcbcb; stroke:none;" d="M329 312C334.216 314.189 341.381 313 347 313L384 313C378.784 310.811 371.619 312 366 312L329 312z"/>
<path style="fill:#303030; stroke:none;" d="M16 313L17 314L16 313z"/>
<path style="fill:#8b8b8b; stroke:none;" d="M328 313L328 320C329.059 317.466 329.059 315.534 328 313z"/>
<path style="fill:#4b4b4b; stroke:none;" d="M329 313C334.216 315.189 341.381 314 347 314L384 314C378.784 311.811 371.619 313 366 313L329 313z"/>
<path style="fill:#9f9f9f; stroke:none;" d="M384 313L384 320C385.059 317.466 385.059 315.534 384 313z"/>
<path style="fill:#a5a5a5; stroke:none;" d="M16 314L17 315L16 314z"/>
<path style="fill:#000000; stroke:none;" d="M329 314L329 320L384 320L384 314L329 314z"/>
<path style="fill:#474747; stroke:none;" d="M15 315L16 316L15 315z"/>
<path style="fill:#c7c7c7; stroke:none;" d="M15 316L16 317L15 316z"/>
<path style="fill:#6d6d6d; stroke:none;" d="M14 317L15 318L14 317z"/>
<path style="fill:#2e2e2e; stroke:none;" d="M13 318L14 319L13 318z"/>
<path style="fill:#9f9f9f; stroke:none;" d="M13 319L14 320L13 319z"/>
<path style="fill:#434343; stroke:none;" d="M12 320L13 321L12 320z"/>
<path style="fill:#c7c7c7; stroke:none;" d="M328 320L329 321L328 320z"/>
<path style="fill:#838383; stroke:none;" d="M329 320C334.216 322.189 341.381 321 347 321L384 321C378.784 318.811 371.619 320 366 320L329 320z"/>
<path style="fill:#cfcfcf; stroke:none;" d="M384 320L385 321L384 320z"/>
<path style="fill:#c3c3c3; stroke:none;" d="M12 321L13 322L12 321z"/>
<path style="fill:#686868; stroke:none;" d="M11 322L12 323L11 322z"/>
<path style="fill:#989898; stroke:none;" d="M10 324L11 325L10 324z"/>
<path style="fill:#3f3f3f; stroke:none;" d="M9 325L10 326L9 325z"/>
<path style="fill:#bfbfbf; stroke:none;" d="M9 326L10 327L9 326z"/>
<path style="fill:#636363; stroke:none;" d="M8 327L9 328L8 327z"/>
<path style="fill:#d4d4d4; stroke:none;" d="M8 328L9 329L8 328z"/>
<path style="fill:#909090; stroke:none;" d="M7 329L8 330L7 329z"/>
<path style="fill:#3b3b3b; stroke:none;" d="M6 330L7 331L6 330z"/>
<path style="fill:#bababa; stroke:none;" d="M6 331L7 332L6 331z"/>
<path style="fill:#5d5d5d; stroke:none;" d="M5 332L6 333L5 332z"/>
<path style="fill:#d0d0d0; stroke:none;" d="M5 333L6 334L5 333z"/>
<path style="fill:#888888; stroke:none;" d="M4 334L5 335L4 334z"/>
<path style="fill:#373737; stroke:none;" d="M3 335L4 336L3 335z"/>
<path style="fill:#b2b2b2; stroke:none;" d="M3 336L4 337L3 336z"/>
<path style="fill:#565656; stroke:none;" d="M2 337L3 338L2 337z"/>
<path style="fill:#cccccc; stroke:none;" d="M2 338L3 339L2 338z"/>
<path style="fill:#626262; stroke:none;" d="M1.33333 339.667C1.2778 339.722 1.22221 340.778 1.66667 340.333C1.72224 340.278 1.77779 339.222 1.33333 339.667z"/>
<path style="fill:#353535; stroke:none;" d="M1.33333 341.667C1.27782 341.722 1.2222 342.778 1.66667 342.333C1.72224 342.278 1.77779 341.222 1.33333 341.667z"/>
<path style="fill:#c8c8c8; stroke:none;" d="M2 346L2 349C2.6961 347.446 2.69611 347.554 2 346z"/>
<path style="fill:#848484; stroke:none;" d="M2 349L2 352C2.6961 350.446 2.6961 350.554 2 349z"/>
<path style="fill:#3f3f3f; stroke:none;" d="M2 352L2 355C2.6961 353.446 2.6961 353.554 2 352z"/>
<path style="fill:#bcbcbc; stroke:none;" d="M3 358L3 361C3.6961 359.446 3.6961 359.554 3 358z"/>
<path style="fill:#787878; stroke:none;" d="M3 361L3 364C3.6961 362.446 3.6961 362.554 3 361z"/>
<path style="fill:#343434; stroke:none;" d="M3.33333 364.667C3.27776 364.722 3.22225 365.778 3.66667 365.333C3.72221 365.278 3.7778 364.222 3.33333 364.667z"/>
<path style="fill:#b0b0b0; stroke:none;" d="M4 370L4 373C4.69611 371.446 4.69609 371.554 4 370z"/>
<path style="fill:#c9c9c9; stroke:none;" d="M329 371C334.216 373.189 341.381 372 347 372L384 372C378.784 369.811 371.619 371 366 371L329 371z"/>
<path style="fill:#8b8b8b; stroke:none;" d="M328 372L328 380C329.161 377.23 329.161 374.77 328 372z"/>
<path style="fill:#494949; stroke:none;" d="M329 372C334.216 374.189 341.381 373 347 373L384 373C378.784 370.811 371.619 372 366 372L329 372z"/>
<path style="fill:#9f9f9f; stroke:none;" d="M384 372L384 380C385.161 377.23 385.161 374.77 384 372z"/>
<path style="fill:#6c6c6c; stroke:none;" d="M4 373L4 376C4.69612 374.446 4.6961 374.554 4 373z"/>
<path style="fill:#000000; stroke:none;" d="M329 373L329 379L384 379L384 373L329 373z"/>
<path style="fill:#282828; stroke:none;" d="M4.33333 376.667C4.27776 376.722 4.22221 377.778 4.66667 377.333C4.7222 377.278 4.77779 376.222 4.33333 376.667z"/>
<path style="fill:#4b4b4b; stroke:none;" d="M329 379C334.216 381.189 341.381 380 347 380L384 380C378.784 377.811 371.619 379 366 379L329 379z"/>
<path style="fill:#cbcbcb; stroke:none;" d="M329 380C334.216 382.189 341.381 381 347 381L384 381C378.784 378.811 371.619 380 366 380L329 380z"/>
<path style="fill:#a4a4a4; stroke:none;" d="M5.33333 382.667C5.27776 382.722 5.22221 383.778 5.66667 383.333C5.7222 383.278 5.77779 382.222 5.33333 382.667z"/>
<path style="fill:#777777; stroke:none;" d="M5 384L5 387C5.69611 385.446 5.6961 385.554 5 384z"/>
<path style="fill:#323232; stroke:none;" d="M5.33333 387.667C5.2778 387.722 5.22221 388.778 5.66667 388.333C5.72225 388.278 5.77777 387.222 5.33333 387.667z"/>
<path style="fill:#9b9b9b; stroke:none;" d="M6.33333 394.667C6.2778 394.722 6.22223 395.778 6.66667 395.333C6.72224 395.278 6.77777 394.222 6.33333 394.667z"/>
<path style="fill:#6b6b6b; stroke:none;" d="M6 396L6 399C6.69611 397.446 6.6961 397.554 6 396z"/>
<path style="fill:#262626; stroke:none;" d="M6.33333 399.667C6.2778 399.722 6.22221 400.778 6.66667 400.333C6.72223 400.278 6.77778 399.222 6.33333 399.667z"/>
<path style="fill:#bebebe; stroke:none;" d="M50 401L51 402L50 401z"/>
<path style="fill:#424242; stroke:none;" d="M50 402L51 403L50 402z"/>
<path style="fill:#c0c0c0; stroke:none;" d="M49 403L50 404L49 403z"/>
<path style="fill:#232323; stroke:none;" d="M50 403L50 408C50.8299 405.97 50.8299 405.03 50 403z"/>
<path style="fill:#404040; stroke:none;" d="M49 404L50 405L49 404z"/>
<path style="fill:#b4b4b4; stroke:none;" d="M7.33333 405.667C7.2778 405.722 7.22222 406.778 7.66667 406.333C7.72224 406.278 7.77777 405.222 7.33333 405.667z"/>
<path style="fill:#c2c2c2; stroke:none;" d="M48 405L49 406L48 405z"/>
<path style="fill:#424242; stroke:none;" d="M48 406L49 407L48 406z"/>
<path style="fill:#767676; stroke:none;" d="M7 407L7 410C7.69611 408.446 7.6961 408.554 7 407z"/>
<path style="fill:#c4c4c4; stroke:none;" d="M47 407L48 408L47 407z"/>
<path style="fill:#454545; stroke:none;" d="M47 408L48 409L47 408z"/>
<path style="fill:#4a4a4a; stroke:none;" d="M50 408L50 413C50.8299 410.97 50.8299 410.03 50 408z"/>
<path style="fill:#a9a9a9; stroke:none;" d="M206 408L206 469C207.875 464.531 207 458.809 207 454L207 424C207 418.92 207.981 412.72 206 408z"/>
<path style="fill:#c6c6c6; stroke:none;" d="M46 409L47 410L46 409z"/>
<path style="fill:#6f6f6f; stroke:none;" d="M205 409L206 410L205 409z"/>
<path style="fill:#313131; stroke:none;" d="M7.33333 410.667C7.27779 410.722 7.22222 411.778 7.66667 411.333C7.72224 411.278 7.77777 410.222 7.33333 410.667z"/>
<path style="fill:#474747; stroke:none;" d="M46 410L47 411L46 410z"/>
<path style="fill:#757575; stroke:none;" d="M204 410L205 411L204 410z"/>
<path style="fill:#c9c9c9; stroke:none;" d="M45 411L46 412L45 411z"/>
<path style="fill:#7b7b7b; stroke:none;" d="M203 411L204 412L203 411z"/>
<path style="fill:#494949; stroke:none;" d="M45 412L46 413L45 412z"/>
<path style="fill:#e6e6e6; stroke:none;" d="M170 412L170 415L172 414C171.455 412.365 171.635 412.545 170 412z"/>
<path style="fill:#838383; stroke:none;" d="M202 412L203 413L202 412z"/>
<path style="fill:#cbcbcb; stroke:none;" d="M44 413L45 414L44 413z"/>
<path style="fill:#717171; stroke:none;" d="M50 413L50 418C50.8299 415.97 50.8299 415.03 50 413z"/>
<path style="fill:#898989; stroke:none;" d="M201 413L202 414L201 413z"/>
<path style="fill:#4b4b4b; stroke:none;" d="M44 414L45 415L44 414z"/>
<path style="fill:#949494; stroke:none;" d="M171 414L172 415L171 414z"/>
<path style="fill:#8f8f8f; stroke:none;" d="M200 414L201 415L200 414z"/>
<path style="fill:#cdcdcd; stroke:none;" d="M43 415L44 416L43 415z"/>
<path style="fill:#959595; stroke:none;" d="M199 415L200 416L199 415z"/>
<path style="fill:#4d4d4d; stroke:none;" d="M43 416L44 417L43 416z"/>
<path style="fill:#d0d0d0; stroke:none;" d="M172 416L173 417L172 416z"/>
<path style="fill:#9b9b9b; stroke:none;" d="M198 416L199 417L198 416z"/>
<path style="fill:#aeaeae; stroke:none;" d="M8.33333 417.667C8.27777 417.722 8.22222 418.778 8.66667 418.333C8.72222 418.278 8.77777 417.222 8.33333 417.667z"/>
<path style="fill:#cfcfcf; stroke:none;" d="M42 417L43 418L42 417z"/>
<path style="fill:#535353; stroke:none;" d="M172 417L173 418L172 417z"/>
<path style="fill:#a1a1a1; stroke:none;" d="M197 417L198 418L197 417z"/>
<path style="fill:#505050; stroke:none;" d="M42 418L43 419L42 418z"/>
<path style="fill:#989898; stroke:none;" d="M50 418L50 423C50.8299 420.97 50.8299 420.03 50 418z"/>
<path style="fill:#a7a7a7; stroke:none;" d="M196 418L197 419L196 418z"/>
<path style="fill:#6c6c6c; stroke:none;" d="M8.33333 419.667C8.27778 419.722 8.22221 420.778 8.66667 420.333C8.72222 420.278 8.77777 419.222 8.33333 419.667z"/>
<path style="fill:#d1d1d1; stroke:none;" d="M41 419L42 420L41 419z"/>
<path style="fill:#a5a5a5; stroke:none;" d="M173 419L174 420L173 419z"/>
<path style="fill:#adadad; stroke:none;" d="M195 419L196 420L195 419z"/>
<path style="fill:#525252; stroke:none;" d="M41 420L42 421L41 420z"/>
<path style="fill:#303030; stroke:none;" d="M173 420L174 421L173 420z"/>
<path style="fill:#b2b2b2; stroke:none;" d="M194 420L195 421L194 420z"/>
<path style="fill:#2d2d2d; stroke:none;" d="M195 420L196 421L195 420z"/>
<path style="fill:#3c3c3c; stroke:none;" d="M8.33333 421.667C8.27778 421.722 8.22221 422.778 8.66667 422.333C8.72224 422.278 8.77776 421.222 8.33333 421.667z"/>
<path style="fill:#d4d4d4; stroke:none;" d="M40 421L41 422L40 421z"/>
<path style="fill:#b8b8b8; stroke:none;" d="M193 421L194 422L193 421z"/>
<path style="fill:#333333; stroke:none;" d="M194 421L195 422L194 421z"/>
<path style="fill:#545454; stroke:none;" d="M40 422L41 423L40 422z"/>
<path style="fill:#686868; stroke:none;" d="M174 422L175 423L174 422z"/>
<path style="fill:#bebebe; stroke:none;" d="M192 422L193 423L192 422z"/>
<path style="fill:#393939; stroke:none;" d="M193 422L194 423L193 422z"/>
<path style="fill:#bfbfbf; stroke:none;" d="M50 423L50 431C51.1614 428.23 51.1614 425.77 50 423z"/>
<path style="fill:#c4c4c4; stroke:none;" d="M191 423L192 424L191 423z"/>
<path style="fill:#3f3f3f; stroke:none;" d="M192 423L193 424L192 423z"/>
<path style="fill:#565656; stroke:none;" d="M39 424L40 425L39 424z"/>
<path style="fill:#b5b5b5; stroke:none;" d="M175 424L176 425L175 424z"/>
<path style="fill:#cacaca; stroke:none;" d="M190 424L191 425L190 424z"/>
<path style="fill:#454545; stroke:none;" d="M191 424L192 425L191 424z"/>
<path style="fill:#3c3c3c; stroke:none;" d="M175 425L176 426L175 425z"/>
<path style="fill:#d0d0d0; stroke:none;" d="M189 425L190 426L189 425z"/>
<path style="fill:#4b4b4b; stroke:none;" d="M190 425L191 426L190 425z"/>
<path style="fill:#595959; stroke:none;" d="M38 426L39 427L38 426z"/>
<path style="fill:#515151; stroke:none;" d="M189 426L190 427L189 426z"/>
<path style="fill:#797979; stroke:none;" d="M176 427L177 428L176 427z"/>
<path style="fill:#575757; stroke:none;" d="M188 427L189 428L188 427z"/>
<path style="fill:#5b5b5b; stroke:none;" d="M37 428L38 429L37 428z"/>
<path style="fill:#5d5d5d; stroke:none;" d="M187 428L188 429L187 428z"/>
<path style="fill:#c3c3c3; stroke:none;" d="M329 428C334.216 430.189 341.381 429 347 429L384 429C378.784 426.811 371.619 428 366 428L329 428z"/>
<path style="fill:#a8a8a8; stroke:none;" d="M9 429L9 432C9.69611 430.446 9.6961 430.554 9 429z"/>
<path style="fill:#bdbdbd; stroke:none;" d="M177 429L178 430L177 429z"/>
<path style="fill:#636363; stroke:none;" d="M186 429L187 430L186 429z"/>
<path style="fill:#8b8b8b; stroke:none;" d="M328 429L328 509C330.497 503.049 329 494.42 329 488L329 448C329 442.113 330.292 434.462 328 429z"/>
<path style="fill:#444444; stroke:none;" d="M329 429C334.216 431.189 341.381 430 347 430L384 430C378.784 427.811 371.619 429 366 429L329 429z"/>
<path style="fill:#a0a0a0; stroke:none;" d="M384 429L384 434C384.83 431.969 384.83 431.03 384 429z"/>
<path style="fill:#606060; stroke:none;" d="M36 430L37 431L36 430z"/>
<path style="fill:#404040; stroke:none;" d="M177 430L178 431L177 430z"/>
<path style="fill:#696969; stroke:none;" d="M185 430L186 431L185 430z"/>
<path style="fill:#ececec; stroke:none;" d="M50 431L50 437C50.9511 434.715 50.9511 433.285 50 431z"/>
<path style="fill:#6f6f6f; stroke:none;" d="M184 431L185 432L184 431z"/>
<path style="fill:#474747; stroke:none;" d="M9 432L9 435C9.69611 433.446 9.6961 433.554 9 432z"/>
<path style="fill:#646464; stroke:none;" d="M35 432L36 433L35 432z"/>
<path style="fill:#848484; stroke:none;" d="M178 432L179 433L178 432z"/>
<path style="fill:#777777; stroke:none;" d="M183 432L184 433L183 432z"/>
<path style="fill:#838383; stroke:none;" d="M182 433L183 434L182 433z"/>
<path style="fill:#3a3a3a; stroke:none;" d="M347 433C351.471 434.876 357.183 434 362 434C357.529 432.124 351.817 433 347 433z"/>
<path style="fill:#1a1a1a; stroke:none;" d="M362 433C367.222 435.191 374.368 434 380 434C374.778 431.809 367.632 433 362 433z"/>
<path style="fill:#696969; stroke:none;" d="M34 434L35 435L34 434z"/>
<path style="fill:#c4c4c4; stroke:none;" d="M179 434L180 435L179 434z"/>
<path style="fill:#8d8d8d; stroke:none;" d="M181 434L182 435L181 434z"/>
<path style="fill:#c6c6c6; stroke:none;" d="M347 434L347 443C348.098 440.387 347.993 437.835 348 435L354 435C351.668 434.015 349.543 434.019 347 434z"/>
<path style="fill:#b7b7b7; stroke:none;" d="M354 434C356.89 435.213 359.874 434.998 363 435C360.11 433.787 357.126 434.002 354 434z"/>
<path style="fill:#a6a6a6; stroke:none;" d="M363 434C365.613 435.098 368.165 434.993 371 435C368.387 433.902 365.836 434.007 363 434z"/>
<path style="fill:#868686; stroke:none;" d="M371 434C374.959 435.661 379.737 435 384 435C380.041 433.339 375.263 434 371 434z"/>
<path style="fill:#cfcfcf; stroke:none;" d="M384 434L385 435L384 434z"/>
<path style="fill:#4c4c4c; stroke:none;" d="M179 435L180 436L179 435z"/>
<path style="fill:#939393; stroke:none;" d="M180 435L181 436L180 435z"/>
<path style="fill:#6d6d6d; stroke:none;" d="M33 436L34 437L33 436z"/>
<path style="fill:#1c1c1c; stroke:none;" d="M171 437L171 442C171.83 439.97 171.83 439.03 171 437z"/>
<path style="fill:#727272; stroke:none;" d="M32 438L33 439L32 438z"/>
<path style="fill:#767676; stroke:none;" d="M31 440L32 441L31 440z"/>
<path style="fill:#a1a1a1; stroke:none;" d="M10 441L10 444C10.6961 442.446 10.6961 442.554 10 441z"/>
<path style="fill:#7b7b7b; stroke:none;" d="M30 442L31 443L30 442z"/>
<path style="fill:#3b3b3b; stroke:none;" d="M171 442L171 447C171.83 444.969 171.83 444.03 171 442z"/>
<path style="fill:#3e3e3e; stroke:none;" d="M10.3333 444.667C10.2778 444.722 10.2222 445.778 10.6667 445.333C10.7222 445.278 10.7778 444.222 10.3333 444.667z"/>
<path style="fill:#808080; stroke:none;" d="M29 444L30 445L29 444z"/>
<path style="fill:#848484; stroke:none;" d="M28 446L29 447L28 446z"/>
<path style="fill:#606060; stroke:none;" d="M171 447L171 456C172.256 453.006 172.256 449.994 171 447z"/>
<path style="fill:#888888; stroke:none;" d="M27 448L28 449L27 448z"/>
<path style="fill:#8d8d8d; stroke:none;" d="M26 450L27 451L26 450z"/>
<path style="fill:#919191; stroke:none;" d="M25 452L26 453L25 452z"/>
<path style="fill:#212121; stroke:none;" d="M346 452L346 457C346.83 454.97 346.83 454.03 346 452z"/>
<path style="fill:#9b9b9b; stroke:none;" d="M11 453L11 456C11.6961 454.446 11.6961 454.554 11 453z"/>
<path style="fill:#969696; stroke:none;" d="M24 454L25 455L24 454z"/>
<path style="fill:#353535; stroke:none;" d="M11.3333 456.667C11.2778 456.722 11.2222 457.778 11.6667 457.333C11.7222 457.278 11.7778 456.222 11.3333 456.667z"/>
<path style="fill:#9a9a9a; stroke:none;" d="M23 456L24 457L23 456z"/>
<path style="fill:#a3a3a3; stroke:none;" d="M171 456L171 462C171.951 459.715 171.951 458.285 171 456z"/>
<path style="fill:#484848; stroke:none;" d="M346 457L346 462C346.83 459.97 346.83 459.03 346 457z"/>
<path style="fill:#9f9f9f; stroke:none;" d="M22 458L23 459L22 458z"/>
<path style="fill:#a3a3a3; stroke:none;" d="M21 460L22 461L21 460z"/>
<path style="fill:#444444; stroke:none;" d="M49 460L49 466C49.9511 463.715 49.9511 462.285 49 460z"/>
<path style="fill:#a6a6a6; stroke:none;" d="M20 462L21 463L20 462z"/>
<path style="fill:#d2d2d2; stroke:none;" d="M171 462L171 468C171.951 465.715 171.951 464.285 171 462z"/>
<path style="fill:#6f6f6f; stroke:none;" d="M346 462L346 467C346.83 464.97 346.83 464.03 346 462z"/>
<path style="fill:#b6b6b6; stroke:none;" d="M12.3333 464.667C12.2778 464.722 12.2222 465.778 12.6667 465.333C12.7222 465.278 12.7778 464.222 12.3333 464.667z"/>
<path style="fill:#a9a9a9; stroke:none;" d="M19 464L20 465L19 464z"/>
<path style="fill:#737373; stroke:none;" d="M12 466L12 469C12.6961 467.446 12.6961 467.554 12 466z"/>
<path style="fill:#ababab; stroke:none;" d="M18 466L19 467L18 466z"/>
<path style="fill:#676767; stroke:none;" d="M49 466L49 471C49.8299 468.97 49.8299 468.03 49 466z"/>
<path style="fill:#2b2b2b; stroke:none;" d="M18 467L19 468L18 467z"/>
<path style="fill:#9e9e9e; stroke:none;" d="M346 467L346 473C346.951 470.715 346.951 469.285 346 467z"/>
<path style="fill:#adadad; stroke:none;" d="M17 468L18 469L17 468z"/>
<path style="fill:#2e2e2e; stroke:none;" d="M17 469L18 470L17 469z"/>
<path style="fill:#8e8e8e; stroke:none;" d="M206 469L206 509C207.552 505.301 207 500.983 207 497C207 488.729 209.206 476.639 206 469z"/>
<path style="fill:#afafaf; stroke:none;" d="M16 470L17 471L16 470z"/>
<path style="fill:#303030; stroke:none;" d="M16 471L17 472L16 471z"/>
<path style="fill:#848484; stroke:none;" d="M49 471L49 480C50.2561 477.006 50.2561 473.994 49 471z"/>
<path style="fill:#b2b2b2; stroke:none;" d="M15 472L16 473L15 472z"/>
<path style="fill:#323232; stroke:none;" d="M15 473L16 474L15 473z"/>
<path style="fill:#b6b6b6; stroke:none;" d="M346 473L346 476C346.696 474.446 346.696 474.554 346 473z"/>
<path style="fill:#b4b4b4; stroke:none;" d="M14 474L15 475L14 474z"/>
<path style="fill:#343434; stroke:none;" d="M14 475L15 476L14 475z"/>
<path style="fill:#717171; stroke:none;" d="M13 476L14 477L13 476z"/>
<path style="fill:#cecece; stroke:none;" d="M346 476L346 479C346.696 477.446 346.696 477.554 346 476z"/>
<path style="fill:#b1b1b1; stroke:none;" d="M49 480L49 489C50.2561 486.006 50.2561 482.994 49 480z"/>
<path style="fill:#333333; stroke:none;" d="M172 488L172 497C173.256 494.006 173.256 490.994 172 488z"/>
<path style="fill:#dddddd; stroke:none;" d="M49 489L49 495C49.9511 492.715 49.9511 491.285 49 489z"/>
<path style="fill:#282828; stroke:none;" d="M345 493L345 496C345.696 494.446 345.696 494.554 345 493z"/>
<path style="fill:#404040; stroke:none;" d="M345 496L345 499C345.696 497.446 345.696 497.554 345 496z"/>
<path style="fill:#6a6a6a; stroke:none;" d="M172 497L172 505C173.161 502.23 173.161 499.77 172 497z"/>
<path style="fill:#6f6f6f; stroke:none;" d="M345 499L345 507C346.161 504.23 346.161 501.77 345 499z"/>
<path style="fill:#969696; stroke:none;" d="M172 505L172 509C172.71 507.241 172.71 506.759 172 505z"/>
<path style="fill:#e6e6e6; stroke:none;" d="M346 506C350.217 507.769 355.459 507 360 507C355.784 505.231 350.541 506 346 506z"/>
<path style="fill:#595959; stroke:none;" d="M345 507C347.89 508.213 350.874 507.998 354 508C351.11 506.787 348.126 507.002 345 507z"/>
<path style="fill:#6d6d6d; stroke:none;" d="M354 507C356.613 508.098 359.165 507.993 362 508C359.387 506.902 356.835 507.007 354 507z"/>
<path style="fill:#808080; stroke:none;" d="M362 507C366.974 509.087 373.638 508 379 508C374.026 505.913 367.362 507 362 507z"/>
<path style="fill:#919191; stroke:none;" d="M379 507C381.89 508.213 384.874 507.998 388 508C385.11 506.787 382.126 507.002 379 507z"/>
<path style="fill:#a5a5a5; stroke:none;" d="M388 507C390.613 508.098 393.165 507.993 396 508C393.387 506.902 390.836 507.007 388 507z"/>
<path style="fill:#c5c5c5; stroke:none;" d="M396 507C400.217 508.769 405.459 508 410 508C405.784 506.231 400.541 507 396 507z"/>
<path style="fill:#e5e5e5; stroke:none;" d="M410 507C414.217 508.769 419.459 508 424 508C419.784 506.231 414.541 507 410 507z"/>
<path style="fill:#1f1f1f; stroke:none;" d="M380 508C384.217 509.769 389.459 509 394 509C389.784 507.231 384.541 508 380 508z"/>
<path style="fill:#414141; stroke:none;" d="M394 508C398.217 509.769 403.459 509 408 509C403.783 507.231 398.541 508 394 508z"/>
<path style="fill:#616161; stroke:none;" d="M408 508C412.217 509.769 417.459 509 422 509C417.783 507.231 412.541 508 408 508z"/>
<path style="fill:#808080; stroke:none;" d="M422 508C428.445 510.704 438.032 509 445 509C438.555 506.296 428.968 508 422 508z"/>
<path style="fill:#9e9e9e; stroke:none;" d="M445 508C449.217 509.769 454.459 509 459 509C454.784 507.231 449.541 508 445 508z"/>
<path style="fill:#bebebe; stroke:none;" d="M459 508C463.217 509.769 468.459 509 473 509C468.784 507.231 463.541 508 459 508z"/>
<path style="fill:#dedede; stroke:none;" d="M473 508C477.217 509.769 482.459 509 487 509C482.784 507.231 477.541 508 473 508z"/>
<path style="fill:#808080; stroke:none;" d="M49 509C52.9586 510.661 57.7397 510 62 510L86 510L172 510C168.041 508.339 163.26 509 159 509L135 509L49 509z"/>
<path style="fill:#4c4c4c; stroke:none;" d="M172 509L173 510L172 509z"/>
<path style="fill:#444444; stroke:none;" d="M206 509L207 510L206 509z"/>
<path style="fill:#808080; stroke:none;" d="M207 509C210.959 510.661 215.74 510 220 510L244 510L328 510C324.041 508.339 319.26 509 315 509L291 509L207 509z"/>
<path style="fill:#454545; stroke:none;" d="M328 509L329 510L328 509z"/>
<path style="fill:#111111; stroke:none;" d="M444 509C446.89 510.213 449.874 509.998 453 510C450.11 508.787 447.126 509.002 444 509z"/>
<path style="fill:#252525; stroke:none;" d="M453 509C455.613 510.098 458.165 509.993 461 510C458.387 508.902 455.836 509.007 453 509z"/>
<path style="fill:#454545; stroke:none;" d="M461 509C465.217 510.769 470.459 510 475 510C470.784 508.231 465.541 509 461 509z"/>
<path style="fill:#656565; stroke:none;" d="M475 509C479.217 510.769 484.459 510 489 510C484.784 508.231 479.541 509 475 509z"/>
<path style="fill:#808080; stroke:none;" d="M489 509C493.724 510.982 499.91 510 505 510C500.276 508.018 494.09 509 489 509z"/>
<path style="fill:#505050; stroke:none;" d="M505 509L506 510L505 509z"/>
</svg>
